<svg width="341" height="195" viewBox="0 0 341 195" fill="none" xmlns="http://www.w3.org/2000/svg">
<g filter="url(#filter0_d)">
<path d="M121.827 32.6519C133.552 9.71264 160.439 6.18981 172.417 7.2958C202.772 9.58667 221.866 32.0934 227.618 43.0604C256.783 27.3195 272.564 45.9165 276.809 57.1826C287.795 57.9326 321.275 59.1943 320.343 100.184C319.524 136.174 282.465 138.332 264.038 134.912C262.584 154.884 243.929 161.462 230.319 166.154C219.431 169.907 207.742 154.637 203.258 146.533C202.77 153.357 195.169 167.955 168.676 171.753C142.183 175.552 122.798 165.875 116.417 160.562C78.0993 174.094 56.2357 145.856 50.0937 130.046C11.6036 133.572 3.94316 106.824 4.92423 93.0092C6.62453 53.4376 47.2057 51.7934 67.2838 55.9177C70.3017 28.7793 104.903 29.0995 121.827 32.6519Z" fill="white"/>
<path d="M121.827 32.6519C133.552 9.71264 160.439 6.18981 172.417 7.2958C202.772 9.58667 221.866 32.0934 227.618 43.0604C256.783 27.3195 272.564 45.9165 276.809 57.1826C287.795 57.9326 321.275 59.1943 320.343 100.184C319.524 136.174 282.465 138.332 264.038 134.912C262.584 154.884 243.929 161.462 230.319 166.154C219.431 169.907 207.742 154.637 203.258 146.533C202.77 153.357 195.169 167.955 168.676 171.753C142.183 175.552 122.798 165.875 116.417 160.562C78.0993 174.094 56.2357 145.856 50.0937 130.046C11.6036 133.572 3.94316 106.824 4.92423 93.0092C6.62453 53.4376 47.2057 51.7934 67.2838 55.9177C70.3017 28.7793 104.903 29.0995 121.827 32.6519Z" stroke="black"/>
</g>
<defs>
<filter id="filter0_d" x="0.64502" y="0.922554" width="340.246" height="193.907" filterUnits="userSpaceOnUse" color-interpolation-filters="sRGB">
<feFlood flood-opacity="0" result="BackgroundImageFix"/>
<feColorMatrix in="SourceAlpha" type="matrix" values="0 0 0 0 0 0 0 0 0 0 0 0 0 0 0 0 0 0 127 0"/>
<feOffset dx="8" dy="8"/>
<feGaussianBlur stdDeviation="5"/>
<feColorMatrix type="matrix" values="0 0 0 0 0 0 0 0 0 0 0 0 0 0 0 0 0 0 0.25 0"/>
<feBlend mode="normal" in2="BackgroundImageFix" result="effect1_dropShadow"/>
<feBlend mode="normal" in="SourceGraphic" in2="effect1_dropShadow" result="shape"/>
</filter>
</defs>
</svg>
