<svg width="357" height="214" viewBox="0 0 357 214" fill="none" xmlns="http://www.w3.org/2000/svg">
<g filter="url(#filter0_d)">
<path d="M2 130.5C2 98.5 33.6667 87.5 49.5 86C55.5 50.0001 63 39 83 25C99 13.8 126.667 20.3333 138.5 25C143 20 152.5 2 182.5 2C206.5 2 220.833 20.6667 225 30C271 27.6 282.5 55 282.5 69C312 70 339 86 338 116C337 146 307 159 293 160C281.8 160.8 261.667 157.667 253 156C249.5 163.5 235.5 174 225 179C214.5 184 191.5 174 182.5 174C173.5 174 159.5 195.5 138.5 195C121.7 194.6 103.167 177.167 96 168.5C89.1667 172.5 71.6 180.2 56 179C36.5 177.5 2 170.5 2 130.5Z" fill="white"/>
<path d="M49.5472 86.4978L49.93 86.4615L49.9932 86.0822C52.9906 68.098 56.3542 56.4189 61.4345 47.4974C66.507 38.5896 73.3142 32.3904 83.2867 25.4096C91.1456 19.9084 101.921 18.7352 112.273 19.5485C122.613 20.3607 132.439 23.1472 138.317 25.4651L138.639 25.5925L138.872 25.3345C139.475 24.664 140.15 23.789 140.935 22.7719C143.179 19.8636 146.32 15.7935 151.242 12.0219C157.843 6.96307 167.611 2.5 182.5 2.5C206.222 2.5 220.418 20.9625 224.543 30.2039L224.683 30.5172L225.026 30.4994C247.921 29.3048 262.149 35.5269 270.653 43.7103C279.169 51.9051 282 62.1193 282 69V69.4834L282.483 69.4997C297.156 69.9971 311.173 74.2251 321.384 82.0224C331.579 89.808 337.994 101.159 337.5 115.983C337.006 130.798 329.358 141.42 320.072 148.477C310.773 155.545 299.865 159.008 292.964 159.501C281.838 160.296 261.766 157.177 253.094 155.509L252.712 155.435L252.547 155.789C250.849 159.427 246.554 163.866 241.313 168.047C236.089 172.213 229.997 176.067 224.785 178.549C222.273 179.745 218.968 180.061 215.226 179.829C211.494 179.597 207.384 178.823 203.299 177.888C200.891 177.336 198.515 176.735 196.232 176.156C194.628 175.75 193.069 175.356 191.577 174.998C187.998 174.14 184.818 173.5 182.5 173.5C180.078 173.5 177.4 174.935 174.497 176.94C172.843 178.083 171.058 179.455 169.166 180.91C167.737 182.008 166.247 183.154 164.704 184.284C157.47 189.585 148.836 194.746 138.512 194.5C130.264 194.304 121.532 189.917 113.93 184.444C106.339 178.981 99.9451 172.486 96.3853 168.181L96.1144 167.854L95.7474 168.069C92.363 170.05 86.2972 172.959 79.1368 175.223C71.9734 177.488 63.7502 179.095 56.0383 178.502C46.311 177.753 32.9106 175.636 21.9531 168.764C11.0325 161.915 2.5 150.323 2.5 130.5C2.5 114.696 10.3082 104.086 20.0995 97.2219C29.9087 90.3452 41.6955 87.2416 49.5472 86.4978Z" stroke="black"/>
</g>
<defs>
<filter id="filter0_d" x="0" y="0" width="356.027" height="213.009" filterUnits="userSpaceOnUse" color-interpolation-filters="sRGB">
<feFlood flood-opacity="0" result="BackgroundImageFix"/>
<feColorMatrix in="SourceAlpha" type="matrix" values="0 0 0 0 0 0 0 0 0 0 0 0 0 0 0 0 0 0 127 0"/>
<feOffset dx="8" dy="8"/>
<feGaussianBlur stdDeviation="5"/>
<feColorMatrix type="matrix" values="0 0 0 0 0 0 0 0 0 0 0 0 0 0 0 0 0 0 0.25 0"/>
<feBlend mode="normal" in2="BackgroundImageFix" result="effect1_dropShadow"/>
<feBlend mode="normal" in="SourceGraphic" in2="effect1_dropShadow" result="shape"/>
</filter>
</defs>
</svg>
