<svg width="371" height="208" viewBox="0 0 371 208" fill="none" xmlns="http://www.w3.org/2000/svg">
<g filter="url(#filter0_d)">
<path d="M97.5094 38.5733C107.909 8.17327 144.843 2.23994 162.009 3.07327C181.209 5.47329 201.009 15.4066 208.509 20.0732C226.509 8.47324 245.343 5.90658 252.509 6.07324C296.109 4.87324 300.676 48.2399 297.509 70.0732C317.509 68.4066 356.309 76.8732 351.509 124.073C346.709 171.273 298.176 171.073 274.509 165.073C235.509 208.573 179.009 179.877 181.509 178.573C127.509 207.573 106.509 164.573 94.0094 165.073C81.5094 165.573 2.00935 165.573 3.00935 95.0732C3.80935 38.6732 66.3427 33.9066 97.5094 38.5733Z" fill="white"/>
<path d="M97.5094 38.5733C107.909 8.17327 144.843 2.23994 162.009 3.07327C181.209 5.47329 201.009 15.4066 208.509 20.0732C226.509 8.47324 245.343 5.90658 252.509 6.07324C296.109 4.87324 300.676 48.2399 297.509 70.0732C317.509 68.4066 356.309 76.8732 351.509 124.073C346.709 171.273 298.176 171.073 274.509 165.073C235.509 208.573 179.009 179.877 181.509 178.573C127.509 207.573 106.509 164.573 94.0094 165.073C81.5094 165.573 2.00935 165.573 3.00935 95.0732C3.80935 38.6732 66.3427 33.9066 97.5094 38.5733Z" stroke="black"/>
</g>
<defs>
<filter id="filter0_d" x="0.5" y="0.500015" width="369.917" height="207.059" filterUnits="userSpaceOnUse" color-interpolation-filters="sRGB">
<feFlood flood-opacity="0" result="BackgroundImageFix"/>
<feColorMatrix in="SourceAlpha" type="matrix" values="0 0 0 0 0 0 0 0 0 0 0 0 0 0 0 0 0 0 127 0"/>
<feOffset dx="8" dy="8"/>
<feGaussianBlur stdDeviation="5"/>
<feColorMatrix type="matrix" values="0 0 0 0 0 0 0 0 0 0 0 0 0 0 0 0 0 0 0.25 0"/>
<feBlend mode="normal" in2="BackgroundImageFix" result="effect1_dropShadow"/>
<feBlend mode="normal" in="SourceGraphic" in2="effect1_dropShadow" result="shape"/>
</filter>
</defs>
</svg>
