<svg width="81" height="81" viewBox="0 0 81 81" fill="none" xmlns="http://www.w3.org/2000/svg">
<g filter="url(#filter0_ii)">
<path d="M40.5 81C62.8675 81 81 62.8675 81 40.5C81 18.1325 62.8675 0 40.5 0C18.1325 0 0 18.1325 0 40.5C0 62.8675 18.1325 81 40.5 81Z" fill="#F7EC91"/>
</g>
<g style="mix-blend-mode:darken">
<g style="mix-blend-mode:luminosity">
<path d="M42.3091 20.4446C42.3091 20.4446 39.7846 19.1003 37.7069 21.178C35.6292 23.2558 33.4525 22.662 33.4525 22.662C33.4525 22.662 35.3167 25.0926 40.7167 24.1301" fill="#455256"/>
</g>
<g style="mix-blend-mode:luminosity">
<path d="M25.5864 45.3593C20.1495 45.3593 15.7421 49.7668 15.7421 55.2035C15.7421 60.6403 20.1495 65.0479 25.5864 65.0479C31.0234 65.0479 35.4308 60.6404 35.4308 55.2035C35.4308 49.7666 31.0234 45.3593 25.5864 45.3593ZM25.5864 62.649C21.4744 62.649 18.141 59.3156 18.141 55.2036C18.141 51.0916 21.4745 47.7583 25.5864 47.7583C29.6984 47.7583 33.0318 51.0916 33.0318 55.2036C33.0318 59.3156 29.6984 62.649 25.5864 62.649Z" fill="#455256"/>
</g>
<g style="mix-blend-mode:luminosity">
<path d="M54.4135 45.3593C48.9766 45.3593 44.5691 49.7668 44.5691 55.2036C44.5691 60.6405 48.9766 65.0479 54.4135 65.0479C59.8504 65.0479 64.2577 60.6405 64.2577 55.2036C64.2577 49.7668 59.8504 45.3593 54.4135 45.3593ZM54.4135 62.649C50.3015 62.649 46.9681 59.3156 46.9681 55.2036C46.9681 51.0916 50.3016 47.7583 54.4135 47.7583C58.5254 47.7583 61.8589 51.0916 61.8589 55.2036C61.8589 59.3156 58.5255 62.649 54.4135 62.649Z" fill="#455256"/>
</g>
<g style="mix-blend-mode:luminosity">
<path d="M43.3144 23.1678C43.3144 26.2521 45.8148 28.7524 48.899 28.7524C51.9833 28.7524 54.4836 26.2521 54.4836 23.1678L49.3938 19.8918L43.3144 23.1678Z" fill="#F9DCA2"/>
</g>
<g style="mix-blend-mode:luminosity">
<path d="M45.989 23.1678L50.6144 20.6753L49.397 19.8918L43.3177 23.1678C43.3177 26.2521 45.818 28.7524 48.9024 28.7524C49.3629 28.7524 49.81 28.6955 50.238 28.5905C47.799 27.9916 45.989 25.7916 45.989 23.1678Z" fill="#E5C691"/>
</g>
<g style="mix-blend-mode:luminosity">
<path d="M43.3177 23.3309C41.5951 23.5575 39.93 24.3331 38.6062 25.656C38.6062 25.656 33.8116 30.4535 33.7562 30.5149C32.094 32.3611 32.1514 35.2066 33.9284 36.9835L43.3464 34.2379L43.3177 23.3309Z" fill="#8D4AD3"/>
</g>
<g style="mix-blend-mode:luminosity">
<path d="M36.1307 30.5149C36.1861 30.4535 40.9807 25.656 40.9807 25.656C41.679 24.9581 42.4729 24.4142 43.3195 24.0214L43.3177 23.3309C41.5951 23.5575 39.93 24.3331 38.6062 25.656C38.6062 25.656 33.8116 30.4535 33.7562 30.5149C32.094 32.3611 32.1514 35.2066 33.9284 36.9835L35.8289 36.4294C34.532 34.6559 34.6321 32.1794 36.1307 30.5149Z" fill="#713BB7"/>
</g>
<g style="mix-blend-mode:luminosity">
<path d="M45.2519 28.7895L45.1272 34.238L51.1032 36.6984C52.3899 37.2281 53.0402 38.7275 52.4862 40.0039C51.9491 41.2411 50.5176 41.8255 49.2649 41.3095L41.6582 38.1776C41.5066 38.1153 41.3634 38.0389 41.2302 37.9504C40.5285 37.4845 40.1005 36.6844 40.1223 35.8203L40.2896 28.6649C40.3241 27.2945 41.4629 26.2116 42.8331 26.2461C44.2035 26.2805 45.2864 27.4193 45.2519 28.7895Z" fill="#F9DCA2"/>
</g>
<g style="mix-blend-mode:luminosity">
<path d="M51.5405 41.0126L43.9339 37.8808C43.7822 37.8183 43.6391 37.7419 43.5059 37.6535C42.8042 37.1876 42.3761 36.3875 42.3979 35.5235L42.5653 28.368C42.5859 27.5491 43.001 26.8331 43.624 26.3966C43.3768 26.3061 43.1111 26.2531 42.8331 26.2461C41.4629 26.2116 40.3241 27.2946 40.2896 28.6649L40.1223 35.8204C40.1005 36.6844 40.5285 37.4845 41.2302 37.9504C41.3634 38.0388 41.5066 38.1151 41.6582 38.1776L49.2649 41.3095C50.0764 41.6438 50.9629 41.5156 51.6325 41.048C51.6019 41.0366 51.5711 41.0254 51.5405 41.0126Z" fill="#E5C691"/>
</g>
<g style="mix-blend-mode:luminosity">
<path d="M42.7586 39.5174C43.3038 40.0625 43.5284 40.8511 43.3514 41.6021L41.1251 51.0626C40.8471 52.244 39.6885 53.0315 38.4993 52.7871C38.055 52.6961 37.6701 52.4784 37.3724 52.1816C36.845 51.6553 36.5956 50.8758 36.7786 50.096L38.7338 41.7891L33.9283 36.9836C32.1514 35.2068 32.0939 32.3611 33.7561 30.515L42.7586 39.5174Z" fill="#F9DCA2"/>
</g>
<g style="mix-blend-mode:luminosity">
<path d="M38.8565 52.1815C38.3291 51.6551 38.0799 50.8756 38.2629 50.0959L40.2179 41.789L35.4125 36.9835C33.895 35.466 33.6326 33.17 34.6231 31.3818L33.7562 30.5149C32.094 32.3611 32.1514 35.2066 33.9284 36.9835L38.7339 41.789L36.7787 50.0959C36.5957 50.8756 36.8451 51.6551 37.3724 52.1815C37.6702 52.4783 38.0551 52.696 38.4994 52.787C38.9066 52.8708 39.3105 52.8333 39.6764 52.7004C39.3609 52.5873 39.0834 52.4076 38.8565 52.1815Z" fill="#E5C691"/>
</g>
<g style="mix-blend-mode:luminosity">
<path d="M42.7586 39.5174L39.6826 41.2539L38.7339 41.7891L33.9284 36.9836C32.1514 35.2066 32.094 32.3611 33.7562 30.515L42.7586 39.5174Z" fill="#EFBC4B"/>
</g>
<g style="mix-blend-mode:luminosity">
<path d="M39.6826 41.2538L38.7339 41.789L33.9284 36.9835C32.1514 35.2066 32.094 32.3611 33.7562 30.5149L34.6229 31.3816C33.6325 33.1705 33.8946 35.4658 35.4125 36.9835L39.6826 41.2538Z" fill="#C49433"/>
</g>
<g style="mix-blend-mode:luminosity">
<path d="M42.457 23.1678H54.0414C55.2269 23.1678 56.0572 21.9925 55.6559 20.8769C54.9921 19.0313 53.2848 16.742 48.899 16.742C45.5148 16.742 42.9311 19.5094 41.5549 21.4119C41.0255 22.1438 41.5536 23.1678 42.457 23.1678Z" fill="#EFBC4B"/>
</g>
<g style="mix-blend-mode:luminosity">
<path d="M45.1808 21.4119C46.2026 19.7206 48.0214 17.3475 50.3979 16.8411C49.9366 16.7769 49.4383 16.742 48.899 16.742C45.5149 16.742 42.9313 19.5094 41.5549 21.4119C41.0255 22.1438 41.5539 23.1678 42.4571 23.1678H45.9342C45.1799 23.1678 44.7386 22.1438 45.1808 21.4119Z" fill="#C49433"/>
</g>
<g style="mix-blend-mode:luminosity">
<path d="M54.4135 44.6172C52.9305 44.6172 51.518 44.9244 50.2356 45.4774L48.2951 41.7129L48.9822 41.9958C49.3782 42.1589 49.7898 42.236 50.1963 42.236C51.4454 42.2359 52.6429 41.5062 53.1669 40.2994C53.2474 40.1137 53.3086 39.923 53.352 39.7293H54.4275C54.8372 39.7293 55.1695 39.397 55.1695 38.9871C55.1695 38.5774 54.8374 38.245 54.4275 38.245H53.3246C53.2882 38.1045 53.2431 37.9651 53.1874 37.828C52.8553 37.0087 52.1985 36.3469 51.3859 36.0122L49.9379 35.416C49.5589 35.26 49.1253 35.4408 48.9691 35.8198C48.8131 36.1988 48.9939 36.6324 49.3729 36.7885L50.8209 37.3847C51.22 37.549 51.55 37.8585 51.7469 38.2452H50.2723C49.8625 38.2452 49.5302 38.5775 49.5302 38.9874C49.5302 39.3971 49.8624 39.7294 50.2723 39.7294H51.7955C51.4134 40.5778 50.4107 40.9789 49.5476 40.6236L47.0056 39.577C47.0034 39.576 47.0009 39.5751 46.9986 39.5741L41.941 37.4916C41.8359 37.4484 41.7349 37.3947 41.6409 37.3324C41.1392 36.9995 40.8491 36.4414 40.8642 35.8379L41.0315 28.6838C41.0555 27.7248 41.8521 26.9604 42.8146 26.9881C43.7736 27.0123 44.5343 27.8121 44.5101 28.7729L44.3855 34.2214C44.3785 34.5281 44.561 34.8075 44.8449 34.9244L46.3182 35.531C46.6971 35.687 47.1307 35.5062 47.2869 35.1272C47.4429 34.7482 47.2621 34.3148 46.8831 34.1585L45.8808 33.7459L45.9937 28.8084C45.9939 28.8006 45.9936 28.793 45.9937 28.7853C46.8644 29.2375 47.852 29.4946 48.899 29.4946C52.2374 29.4946 54.9782 26.895 55.2082 23.6139C55.5392 23.4351 55.8301 23.1814 56.0523 22.8654C56.511 22.2129 56.6239 21.3756 56.3541 20.626C55.8929 19.3434 55.1419 18.3005 54.1218 17.5264C52.7874 16.5135 51.0303 16 48.899 16C45.9853 16 43.6426 17.8524 42.1056 19.5528C40.8916 19.1321 38.8439 18.9916 37.1821 20.6533C35.4576 22.3778 33.7144 21.963 33.6478 21.9461C33.3405 21.8624 33.014 21.984 32.8365 22.2483C32.6589 22.5126 32.6699 22.8609 32.8638 23.1136C32.9358 23.2073 34.3855 25.0281 38.1205 25.0937C38.1076 25.1065 38.0942 25.1184 38.0815 25.1313L33.4036 29.809C33.3371 29.8756 33.2717 29.9443 33.209 30.0136C33.2061 30.0166 33.2032 30.0199 33.2005 30.023C31.2679 32.1745 31.3566 35.4611 33.4036 37.508L33.7234 37.8278H29.2072C28.7974 37.8278 28.4651 38.16 28.4651 38.5699C28.4651 38.9796 28.7974 39.312 29.2072 39.312H31.039L32.8776 42.5391L30.6885 45.9305C29.1744 45.094 27.435 44.6171 25.5861 44.6171C19.7491 44.6172 15 49.3662 15 55.2036C15 61.041 19.7491 65.79 25.5864 65.79C31.1744 65.79 35.7644 61.4379 36.1464 55.9454H40.946C41.2129 55.9454 41.4594 55.802 41.5912 55.5699L47.977 44.3346L48.9174 46.1589C45.8676 48.019 43.8272 51.3775 43.8272 55.2036C43.8272 61.041 48.5762 65.79 54.4136 65.79C60.251 65.79 65 61.0409 65 55.2036C64.9999 49.3662 60.2507 44.6172 54.4135 44.6172ZM38.6484 52.0601C38.363 52.0016 38.1031 51.862 37.8968 51.6563C37.5304 51.2908 37.3826 50.7708 37.5011 50.2659L39.2326 42.9089C39.2328 42.9076 39.2331 42.9066 39.2334 42.9055L39.3818 42.2754L42.5427 40.4914C42.6717 40.782 42.705 41.11 42.629 41.432L42.355 42.597C42.354 42.6012 42.3529 42.6054 42.352 42.6097L40.403 50.8926C40.2137 51.6963 39.4266 52.22 38.6484 52.0601ZM36.8569 46.5256L35.1325 43.4988H37.5693L36.8569 46.5256ZM44.1132 23.9099H46.7597V27.5108C45.3719 26.8244 44.3577 25.4927 44.1132 23.9099ZM48.899 28.0103C48.6768 28.0103 48.4584 27.9939 48.2439 27.9648V23.9099H50.6184V24.542C50.6184 24.9518 50.9506 25.284 51.3605 25.284C51.7704 25.284 52.1026 24.9519 52.1026 24.542V23.9099H53.6847C53.3266 26.2291 51.317 28.0103 48.899 28.0103ZM48.899 17.4841C52.0496 17.4841 54.0881 18.7103 54.9578 21.1283C55.0656 21.4283 55.0221 21.7504 54.8383 22.0118C54.6531 22.2749 54.3628 22.4259 54.0413 22.4259H42.457C42.2531 22.4259 42.1589 22.2845 42.1279 22.2238C42.0974 22.1643 42.0393 22.0083 42.156 21.847C43.3348 20.2175 45.7783 17.4841 48.899 17.4841ZM35.7666 23.2404C36.5308 23.0006 37.3913 22.543 38.2316 21.7028C39.2148 20.7196 40.3202 20.6786 41.0719 20.8158C41.0314 20.8703 40.9916 20.9243 40.9536 20.9769C40.5455 21.5411 40.4889 22.2776 40.8063 22.8988C40.8591 23.0024 40.9214 23.0988 40.9905 23.1885C40.8174 23.2596 40.6464 23.3354 40.4784 23.4174C38.3051 23.7893 36.7831 23.5824 35.7666 23.2404ZM39.1309 26.1809C40.1169 25.1956 41.3252 24.5228 42.6592 24.2068C42.7345 24.6604 42.8585 25.0975 43.0251 25.5135C42.9679 25.509 42.9103 25.5058 42.852 25.5044C41.0755 25.4593 39.5928 26.8691 39.548 28.6475L39.3969 35.1061L34.8014 30.5106L39.1309 26.1809ZM33.8398 31.6477L41.5433 39.3512L38.86 40.8656L34.4531 36.4589C33.1533 35.1589 32.9386 33.172 33.8398 31.6477ZM34.8649 39.312C34.9661 39.312 35.0625 39.2916 35.1505 39.2549L37.91 42.0145H34.2869L32.7472 39.312H34.8649ZM33.7059 43.9929L36.3574 48.6471L36.0563 49.9262C35.8193 50.9359 36.1153 51.9753 36.8485 52.707C37.2609 53.1181 37.7802 53.3971 38.3497 53.5139C38.5422 53.5534 38.7349 53.5725 38.9254 53.5725C39.0031 53.5725 39.0804 53.5685 39.1573 53.5623L39.6693 54.461H36.146C35.9265 51.3079 34.3205 48.5306 31.9344 46.737L33.7059 43.9929ZM33.7386 54.4611C33.53 52.1514 32.3581 50.1165 30.6287 48.7601L31.1275 47.9874C33.1073 49.5111 34.4449 51.8295 34.6583 54.461H33.7386V54.4611ZM32.2477 54.4611H26.949L29.821 50.0116C31.1459 51.0943 32.0496 52.6728 32.2477 54.4611ZM25.5864 64.3059C20.5674 64.3059 16.4841 60.2226 16.4841 55.2035C16.4841 50.1845 20.5674 46.1013 25.5864 46.1013C27.139 46.1013 28.6016 46.4923 29.8819 47.1805L29.3832 47.9531C28.2475 47.356 26.9563 47.0161 25.5864 47.0161C24.5993 47.0161 23.634 47.19 22.7171 47.5333C22.3333 47.6769 22.1385 48.1045 22.2821 48.4883C22.4258 48.8721 22.8535 49.0666 23.2372 48.9233C23.9871 48.6426 24.7774 48.5003 25.5862 48.5003C26.6599 48.5003 27.6742 48.7554 28.5746 49.2059L24.9633 54.8009C24.8159 55.0291 24.805 55.3197 24.935 55.5582C25.0649 55.797 25.3149 55.9454 25.5868 55.9454H32.2477C31.8774 59.2937 29.0317 61.907 25.5862 61.907C21.89 61.907 18.883 58.8999 18.883 55.2037C18.883 53.2457 19.736 51.3909 21.2232 50.1145C21.5342 49.8476 21.57 49.379 21.3031 49.0681C21.0364 48.7571 20.5678 48.7213 20.2568 48.9883C18.4405 50.5469 17.3989 52.8123 17.3989 55.2035C17.3989 59.7181 21.0717 63.3909 25.5862 63.3909C29.8506 63.3909 33.3622 60.1133 33.7385 55.9451H34.6581C34.2795 60.6188 30.3556 64.3059 25.5864 64.3059ZM40.9455 53.7026L40.5796 53.0605C41.1951 52.6462 41.6654 52.0063 41.8475 51.2324L43.6674 43.4986H46.745L40.9455 53.7026ZM44.0165 42.0146L44.0736 41.7724C44.2241 41.1341 44.1603 40.4838 43.9078 39.9061L46.1759 40.8401L46.7812 42.0146H44.0165ZM54.4135 64.3059C49.3945 64.3059 45.3111 60.2225 45.3111 55.2035C45.3111 51.951 47.0263 49.092 49.5993 47.4821L50.0206 48.2999C47.7415 49.755 46.2259 52.3049 46.2259 55.2037C46.2259 59.7184 49.8989 63.3911 54.4133 63.3911C58.9278 63.3911 62.6008 59.7181 62.6008 55.2037C62.6008 50.6892 58.9278 47.0164 54.4133 47.0164C53.3261 47.0164 52.2886 47.2311 51.3385 47.6178L50.9171 46.8001C51.9941 46.3502 53.1751 46.1014 54.4133 46.1014C59.4324 46.1014 63.5156 50.1846 63.5156 55.2037C63.5159 60.2226 59.4325 64.3059 54.4135 64.3059ZM55.0734 54.8631L52.0219 48.9429C52.7653 48.6579 53.5712 48.5003 54.4136 48.5003C58.1099 48.5003 61.1169 51.5074 61.1169 55.2035C61.1169 58.8998 58.1097 61.9069 54.4136 61.9069C50.7174 61.9069 47.7103 58.8998 47.7103 55.2035C47.7103 52.8784 48.9006 50.8268 50.7035 49.624L53.7544 55.5431C53.886 55.7986 54.1455 55.9452 54.4146 55.9452C54.5289 55.9452 54.6453 55.9185 54.7539 55.8626C55.118 55.675 55.2611 55.2275 55.0734 54.8631Z" fill="black"/>
</g>
</g>
<defs>
<filter id="filter0_ii" x="-4" y="-4" width="89" height="89" filterUnits="userSpaceOnUse" color-interpolation-filters="sRGB">
<feFlood flood-opacity="0" result="BackgroundImageFix"/>
<feBlend mode="normal" in="SourceGraphic" in2="BackgroundImageFix" result="shape"/>
<feColorMatrix in="SourceAlpha" type="matrix" values="0 0 0 0 0 0 0 0 0 0 0 0 0 0 0 0 0 0 127 0" result="hardAlpha"/>
<feOffset dx="4" dy="4"/>
<feGaussianBlur stdDeviation="2"/>
<feComposite in2="hardAlpha" operator="arithmetic" k2="-1" k3="1"/>
<feColorMatrix type="matrix" values="0 0 0 0 0 0 0 0 0 0 0 0 0 0 0 0 0 0 0.25 0"/>
<feBlend mode="normal" in2="shape" result="effect1_innerShadow"/>
<feColorMatrix in="SourceAlpha" type="matrix" values="0 0 0 0 0 0 0 0 0 0 0 0 0 0 0 0 0 0 127 0" result="hardAlpha"/>
<feOffset dx="-6" dy="-6"/>
<feGaussianBlur stdDeviation="2"/>
<feComposite in2="hardAlpha" operator="arithmetic" k2="-1" k3="1"/>
<feColorMatrix type="matrix" values="0 0 0 0 1 0 0 0 0 0.988317 0 0 0 0 0.891667 0 0 0 1 0"/>
<feBlend mode="normal" in2="effect1_innerShadow" result="effect2_innerShadow"/>
</filter>
</defs>
</svg>
