<svg width="489" height="143" viewBox="0 0 489 143" fill="none" xmlns="http://www.w3.org/2000/svg">
<path d="M12.5607 0.93934C11.9749 0.353553 11.0251 0.353553 10.4393 0.93934L0.893398 10.4853C0.307612 11.0711 0.307612 12.0208 0.893398 12.6066C1.47918 13.1924 2.42893 13.1924 3.01472 12.6066L11.5 4.12132L19.9853 12.6066C20.5711 13.1924 21.5208 13.1924 22.1066 12.6066C22.6924 12.0208 22.6924 11.0711 22.1066 10.4853L12.5607 0.93934ZM92 57L91.2462 55.7032L92 57ZM383 111L383.822 109.745L383 111ZM10.4393 142.061C11.0251 142.646 11.9749 142.646 12.5607 142.061L22.1066 132.515C22.6924 131.929 22.6924 130.979 22.1066 130.393C21.5208 129.808 20.5711 129.808 19.9853 130.393L11.5 138.879L3.01472 130.393C2.42894 129.808 1.47919 129.808 0.893402 130.393C0.307615 130.979 0.307615 131.929 0.893401 132.515L10.4393 142.061ZM10 2C10 3.33634 10.0213 4.69591 10.0652 6.07368L13.0637 5.97804C13.0208 4.63225 13 3.30456 13 2L10 2ZM10.5829 14.2139C10.8392 16.893 11.1849 19.6037 11.6296 22.3127L14.59 21.8266C14.1568 19.1878 13.8195 16.5441 13.5693 13.9282L10.5829 14.2139ZM13.2532 30.3288C13.9026 32.9966 14.6608 35.6322 15.5378 38.2019L18.377 37.2329C17.5316 34.7559 16.7981 32.2074 16.1681 29.6193L13.2532 30.3288ZM18.6073 45.8326C19.799 48.3629 21.136 50.7855 22.6312 53.0591L25.1378 51.4108C23.7286 49.2679 22.4594 46.9707 21.3214 44.5544L18.6073 45.8326ZM27.7934 59.5913C29.7327 61.6203 31.864 63.436 34.2014 64.9869L35.8601 62.4871C33.7224 61.0687 31.7602 59.3996 29.9621 57.5184L27.7934 59.5913ZM41.7175 68.7483C44.2628 69.6523 46.9841 70.2827 49.8888 70.605L50.2196 67.6233C47.5389 67.3258 45.0438 66.7461 42.7217 65.9213L41.7175 68.7483ZM58.2187 70.6987C60.8261 70.4877 63.5535 70.0577 66.4052 69.3928L65.724 66.4712C63.0056 67.105 60.4252 67.5103 57.9766 67.7085L58.2187 70.6987ZM74.2789 67.0617C76.7287 66.1905 79.261 65.1607 81.8785 63.9639L80.6309 61.2355C78.087 62.3988 75.6354 63.3952 73.2736 64.2352L74.2789 67.0617ZM89.149 60.323C90.3344 59.6799 91.5359 59.0047 92.7538 58.2968L91.2462 55.7032C90.053 56.3967 88.8771 57.0575 87.7183 57.6861L89.149 60.323ZM92.7538 58.2968C93.9053 57.6275 95.0433 56.9639 96.1679 56.306L94.653 53.7165C93.5308 54.373 92.3953 55.0353 91.2462 55.7032L92.7538 58.2968ZM102.889 52.349C105.182 50.9909 107.415 49.6596 109.59 48.3553L108.048 45.7824C105.877 47.084 103.648 48.4127 101.36 49.7679L102.889 52.349ZM116.272 44.326C118.56 42.938 120.78 41.5842 122.933 40.2651L121.365 37.7071C119.216 39.024 117 40.3755 114.716 41.7609L116.272 44.326ZM129.569 36.1804C131.852 34.7697 134.052 33.4044 136.174 32.0855L134.59 29.5377C132.47 30.8557 130.272 32.2195 127.992 33.6284L129.569 36.1804ZM142.811 27.9547C145.118 26.518 147.321 25.1476 149.426 23.8441L147.846 21.2935C145.738 22.5991 143.533 23.9712 141.225 25.408L142.811 27.9547ZM156.06 19.7664C158.418 18.3322 160.632 17.0053 162.716 15.7876L161.203 13.1974C159.099 14.4266 156.869 15.7631 154.501 17.2035L156.06 19.7664ZM169.466 11.9912C171.986 10.6434 174.264 9.52259 176.337 8.63027L175.151 5.87479C172.978 6.81028 170.621 7.97163 168.051 9.34575L169.466 11.9912ZM183.417 6.32371C186.165 5.81758 188.323 6.02667 190.162 6.85789L191.398 4.12433C188.865 2.97942 186.056 2.78711 182.874 3.37335L183.417 6.32371ZM195.247 11.506C195.895 12.4402 196.536 13.5042 197.176 14.7059L199.824 13.2941C199.139 12.0115 198.439 10.8442 197.711 9.79527L195.247 11.506ZM197.176 14.7059C197.754 15.7892 198.021 16.8986 198.027 18.0483L201.027 18.0337C201.019 16.4028 200.634 14.8131 199.824 13.2941L197.176 14.7059ZM195.514 25.0356C194.216 27.0362 192.463 29.1212 190.359 31.2719L192.503 33.3697C194.692 31.1326 196.588 28.891 198.031 26.6691L195.514 25.0356ZM184.278 36.906C182.238 38.6556 180.064 40.417 177.819 42.1811L179.672 44.5401C181.939 42.7591 184.148 40.9694 186.231 39.1834L184.278 36.906ZM171.177 47.2873C168.93 48.9892 166.669 50.69 164.474 52.3634L166.293 54.7492C168.484 53.0783 170.729 51.3903 172.988 49.6784L171.177 47.2873ZM157.811 57.5631C155.465 59.4557 153.273 61.3161 151.337 63.1258L153.385 65.3173C155.249 63.5748 157.381 61.7642 159.694 59.8979L157.811 57.5631ZM145.507 69.5917C143.419 72.6024 142.263 75.8252 143.572 78.8532L146.326 77.6633C145.653 76.1057 146.058 74.0614 147.973 71.3014L145.507 69.5917ZM150.917 84.637C152.16 85.114 153.562 85.5524 155.128 85.9532L155.872 83.0468C154.396 82.6692 153.107 82.2641 151.991 81.8361L150.917 84.637ZM155.128 85.9532C156.468 86.2959 157.898 86.5212 159.411 86.6422L159.65 83.6517C158.281 83.5422 157.022 83.341 155.872 83.0468L155.128 85.9532ZM167.825 86.4138C170.414 86.1234 173.178 85.6513 176.098 85.0228L175.467 82.09C172.622 82.7021 169.96 83.1556 167.49 83.4325L167.825 86.4138ZM184.184 83.011C186.722 82.3057 189.356 81.5134 192.08 80.6455L191.168 77.7872C188.475 78.6457 185.877 79.4269 183.381 80.1206L184.184 83.011ZM199.9 78.0372C202.425 77.1622 205.014 76.2366 207.663 75.2679L206.632 72.4505C203.997 73.4143 201.424 74.3341 198.918 75.2026L199.9 78.0372ZM215.342 72.4069C217.848 71.4581 220.401 70.4792 222.996 69.4757L221.914 66.6776C219.324 67.6792 216.778 68.6555 214.28 69.6012L215.342 72.4069ZM230.641 66.5C233.156 65.5162 235.707 64.515 238.289 63.5013L237.193 60.7088C234.61 61.7226 232.062 62.7231 229.548 63.7061L230.641 66.5ZM245.945 60.4986C248.464 59.5124 251.01 58.5187 253.58 57.5214L252.495 54.7246C249.921 55.7233 247.372 56.7181 244.851 57.705L245.945 60.4986ZM261.217 54.5773C263.753 53.6069 266.309 52.6367 268.884 51.6703L267.829 48.8617C265.248 49.8306 262.686 50.803 260.145 51.7754L261.217 54.5773ZM276.577 48.8161C279.128 47.8816 281.694 46.9542 284.273 46.037L283.267 43.2104C280.679 44.131 278.104 45.0617 275.545 45.9992L276.577 48.8161ZM292 43.3358C294.578 42.4512 297.166 41.5799 299.763 40.7254L298.825 37.8757C296.215 38.7345 293.615 39.6098 291.027 40.4983L292 43.3358ZM307.553 38.2221C310.156 37.4067 312.765 36.611 315.379 35.8383L314.529 32.9614C311.899 33.739 309.274 34.5393 306.656 35.3593L307.553 38.2221ZM323.243 33.5889C325.873 32.8626 328.505 32.1627 331.138 31.4924L330.397 28.5852C327.744 29.2607 325.093 29.9658 322.444 30.6971L323.243 33.5889ZM339.081 29.5624C341.746 28.9471 344.408 28.3655 347.066 27.8209L346.464 24.882C343.78 25.4318 341.094 26.0187 338.406 26.6393L339.081 29.5624ZM355.08 26.2921C357.768 25.8182 360.45 25.386 363.123 24.9989L362.693 22.0299C359.989 22.4216 357.276 22.8587 354.559 23.3376L355.08 26.2921ZM371.224 23.9645C373.942 23.6654 376.648 23.4174 379.34 23.2243L379.125 20.232C376.394 20.4279 373.65 20.6795 370.896 20.9825L371.224 23.9645ZM387.461 22.8104C390.186 22.7301 392.894 22.7114 395.58 22.758L395.633 19.7585C392.897 19.711 390.143 19.7301 387.373 19.8117L387.461 22.8104ZM403.711 23.1076C406.43 23.2968 409.125 23.5595 411.792 23.9L412.172 20.9242C409.445 20.5761 406.694 20.3079 403.92 20.1149L403.711 23.1076ZM419.794 25.1754C422.455 25.6876 425.086 26.2853 427.682 26.9728L428.45 24.0728C425.785 23.367 423.087 22.7542 420.361 22.2294L419.794 25.1754ZM435.42 29.3285C437.968 30.21 440.479 31.1878 442.949 32.2667L444.15 29.5174C441.606 28.4062 439.021 27.3999 436.401 26.4934L435.42 29.3285ZM450.206 35.7947C451.393 36.4334 452.569 37.0982 453.734 37.7899L455.266 35.2101C454.064 34.4969 452.851 33.8114 451.628 33.1529L450.206 35.7947ZM453.734 37.7899C454.924 38.4958 456.075 39.1985 457.189 39.8979L458.784 37.3572C457.648 36.6441 456.476 35.9284 455.266 35.2101L453.734 37.7899ZM463.645 44.206C465.884 45.8008 467.929 47.3754 469.787 48.9285L471.711 46.6262C469.787 45.0192 467.681 43.3977 465.385 41.7622L463.645 44.206ZM475.462 54.1802C477.394 56.1856 479.011 58.1455 480.34 60.0564L482.803 58.3431C481.372 56.2862 479.65 54.2042 477.622 52.0989L475.462 54.1802ZM483.886 66.6042C484.843 69.0964 485.307 71.4899 485.349 73.7842L488.348 73.7295C488.3 71.0616 487.76 68.3234 486.686 65.5281L483.886 66.6042ZM484.078 80.9367C483.239 83.1486 481.997 85.2919 480.397 87.3578L482.769 89.1948C484.523 86.93 485.923 84.5299 486.883 82.0012L484.078 80.9367ZM475.148 92.817C473.292 94.4198 471.222 95.9524 468.974 97.4086L470.605 99.9265C472.952 98.4058 475.135 96.792 477.109 95.0878L475.148 92.817ZM462.282 101.261C460.031 102.417 457.671 103.506 455.229 104.525L456.384 107.294C458.893 106.247 461.326 105.125 463.653 103.929L462.282 101.261ZM447.935 107.28C445.493 108.113 443.002 108.879 440.484 109.574L441.283 112.466C443.856 111.755 446.403 110.972 448.903 110.119L447.935 107.28ZM432.904 111.442C430.345 111.998 427.783 112.48 425.242 112.886L425.714 115.848C428.311 115.434 430.927 114.942 433.541 114.374L432.904 111.442ZM417.492 113.892C414.84 114.155 412.241 114.326 409.724 114.403L409.816 117.402C412.405 117.322 415.072 117.146 417.788 116.877L417.492 113.892ZM401.963 114.324C399.239 114.174 396.68 113.888 394.331 113.464L393.798 116.417C396.287 116.865 398.97 117.163 401.797 117.32L401.963 114.324ZM387.05 111.423C385.839 110.921 384.761 110.36 383.822 109.745L382.178 112.255C383.297 112.988 384.545 113.632 385.901 114.194L387.05 111.423ZM383.822 109.745C382.783 109.065 381.708 108.365 380.596 107.649L378.972 110.172C380.076 110.883 381.145 111.578 382.178 112.255L383.822 109.745ZM374.072 103.531C371.954 102.223 369.745 100.887 367.453 99.5405L365.934 102.127C368.204 103.461 370.395 104.785 372.495 106.083L374.072 103.531ZM360.736 95.7046C358.521 94.4776 356.247 93.2554 353.922 92.0511L352.542 94.7152C354.841 95.9055 357.09 97.1143 359.282 98.3287L360.736 95.7046ZM346.996 88.601C344.686 87.496 342.335 86.4189 339.95 85.3811L338.753 88.132C341.103 89.1546 343.422 90.2168 345.702 91.3074L346.996 88.601ZM332.78 82.4283C330.373 81.4943 327.939 80.6092 325.485 79.7841L324.529 82.6277C326.937 83.4372 329.328 84.3066 331.695 85.2252L332.78 82.4283ZM318.058 77.497C315.554 76.7984 313.034 76.1716 310.508 75.6282L309.877 78.5611C312.341 79.0911 314.802 79.7031 317.252 80.3867L318.058 77.497ZM302.833 74.2479C300.243 73.8765 297.651 73.604 295.064 73.4428L294.878 76.437C297.379 76.5929 299.891 76.8568 302.407 77.2176L302.833 74.2479ZM287.24 73.308C284.618 73.3862 282.009 73.5937 279.422 73.9438L279.824 76.9167C282.302 76.5814 284.806 76.382 287.33 76.3066L287.24 73.308ZM271.705 75.4417C269.176 76.0894 266.677 76.892 264.216 77.8624L265.317 80.6533C267.658 79.7301 270.037 78.9656 272.449 78.3479L271.705 75.4417ZM257.086 81.2183C255.944 81.8488 254.812 82.5209 253.693 83.2358L255.307 85.7642C256.373 85.0838 257.449 84.4445 258.536 83.8448L257.086 81.2183ZM253.693 83.2358C252.603 83.9315 251.485 84.64 250.339 85.3597L251.934 87.9003C253.086 87.1766 254.211 86.464 255.307 85.7642L253.693 83.2358ZM243.562 89.5451C241.349 90.8897 239.058 92.2594 236.699 93.6449L238.218 96.2317C240.591 94.8385 242.894 93.4611 245.12 92.1091L243.562 89.5451ZM229.803 97.6259C227.528 98.9165 225.202 100.213 222.834 101.507L224.272 104.14C226.655 102.837 228.995 101.533 231.283 100.235L229.803 97.6259ZM215.799 105.277C213.469 106.501 211.105 107.717 208.715 108.918L210.063 111.599C212.469 110.389 214.849 109.165 217.194 107.933L215.799 105.277ZM201.56 112.431C199.171 113.575 196.762 114.7 194.338 115.798L195.577 118.531C198.02 117.423 200.449 116.289 202.856 115.137L201.56 112.431ZM187.048 119.004C184.6 120.047 182.144 121.057 179.685 122.03L180.789 124.82C183.273 123.837 185.753 122.816 188.224 121.764L187.048 119.004ZM172.25 124.851C169.74 125.761 167.233 126.625 164.735 127.437L165.664 130.29C168.194 129.467 170.733 128.592 173.272 127.671L172.25 124.851ZM157.134 129.754C154.558 130.484 152 131.151 149.466 131.747L150.153 134.667C152.734 134.06 155.336 133.382 157.952 132.641L157.134 129.754ZM141.711 133.36C139.066 133.834 136.458 134.219 133.896 134.507L134.231 137.488C136.863 137.192 139.536 136.797 142.24 136.313L141.711 133.36ZM126.043 135.081C123.361 135.165 120.745 135.123 118.207 134.945L117.997 137.938C120.646 138.123 123.363 138.166 126.137 138.08L126.043 135.081ZM110.467 133.922C107.872 133.401 105.383 132.704 103.014 131.82L101.965 134.63C104.495 135.575 107.138 136.314 109.877 136.863L110.467 133.922ZM96.0849 128.472C94.9908 127.805 93.9311 127.084 92.9076 126.306L91.0924 128.694C92.1989 129.535 93.3435 130.314 94.5238 131.033L96.0849 128.472ZM92.9076 126.306C91.8649 125.513 90.8179 124.739 89.7675 123.985L88.0171 126.421C89.0455 127.16 90.0709 127.918 91.0924 128.694L92.9076 126.306ZM83.2992 119.606C81.0624 118.184 78.8194 116.851 76.5796 115.614L75.129 118.24C77.3129 119.446 79.5028 120.747 81.6893 122.138L83.2992 119.606ZM69.6045 112.064C67.1736 110.934 64.7572 109.924 62.3678 109.041L61.3276 111.855C63.6365 112.708 65.978 113.687 68.3397 114.785L69.6045 112.064ZM54.8681 106.667C52.2317 105.978 49.6439 105.462 47.1237 105.132L46.7338 108.106C49.1184 108.419 51.5829 108.909 54.1097 109.569L54.8681 106.667ZM39.1584 104.727C36.3778 104.83 33.7136 105.211 31.2015 105.893L31.9879 108.788C34.255 108.172 36.6902 107.82 39.2695 107.725L39.1584 104.727ZM23.7371 109.129C21.4515 110.57 19.3989 112.374 17.6207 114.555L19.946 116.45C21.5182 114.522 23.3255 112.935 25.3369 111.667L23.7371 109.129ZM13.4604 121.503C12.4645 123.818 11.6728 126.375 11.0995 129.18L14.0387 129.78C14.5753 127.155 15.3092 124.797 16.2161 122.689L13.4604 121.503ZM10.1093 137.046C10.0368 138.324 10 139.642 10 141L13 141C13 139.696 13.0353 138.434 13.1045 137.216L10.1093 137.046Z" fill="white"/>
</svg>
