<svg width="81" height="81" viewBox="0 0 81 81" fill="none" xmlns="http://www.w3.org/2000/svg">
<g filter="url(#filter0_ii)">
<path d="M40.5 81C62.8675 81 81 62.8675 81 40.5C81 18.1325 62.8675 0 40.5 0C18.1325 0 0 18.1325 0 40.5C0 62.8675 18.1325 81 40.5 81Z" fill="#F7EC91"/>
</g>
<g style="mix-blend-mode:darken">
<g style="mix-blend-mode:luminosity">
<path d="M48.4381 52.7486H43.5633L41.1259 54.3735L37.876 53.561L34.6261 54.3735L32.1887 52.7486H27.3139C23.7228 52.7486 20.8142 55.6572 20.8142 59.2483V64.9356H37.876H54.9378V59.2483C54.9378 55.6572 52.0292 52.7486 48.4381 52.7486Z" fill="#5D9CEC"/>
</g>
<g style="mix-blend-mode:luminosity">
<path d="M57.3752 52.7486C58.2771 52.7486 59.0001 53.4716 59.0001 54.3735C59.0001 55.2672 58.2771 55.9984 57.3752 55.9984C56.4815 55.9984 55.7503 55.2672 55.7503 54.3735C55.7503 53.4716 56.4815 52.7486 57.3752 52.7486Z" fill="#AAB2BD"/>
</g>
<g style="mix-blend-mode:luminosity">
<path d="M57.3752 52.7486C56.4815 52.7486 55.7502 53.4716 55.7502 54.3735C55.7502 55.2672 56.4815 55.9984 57.3752 55.9984C58.2771 55.9984 59.0001 55.2672 59.0001 54.3735C59.0001 53.4716 58.2771 52.7486 57.3752 52.7486ZM50.3392 50.3112H64.4111C65.0286 51.3754 65.4096 52.5941 65.4836 53.9023C61.795 54.9503 59.0814 58.314 59.0001 62.3276V62.3357C58.4801 62.4412 57.9358 62.4982 57.3752 62.4982C56.8146 62.4982 56.2702 62.4412 55.7502 62.3357C55.6852 58.3139 52.9635 54.9503 49.2668 53.9023C49.3399 52.5941 49.7217 51.3754 50.3392 50.3112Z" fill="#545C66"/>
</g>
<g style="mix-blend-mode:luminosity">
<path d="M46.8131 54.3735C46.8131 53.821 46.8538 53.2766 46.9351 52.7486C47.715 47.6868 52.0942 43.8114 57.3752 43.8114C63.2087 43.8114 67.9373 48.54 67.9373 54.3735C67.9373 60.207 63.2087 64.9356 57.3752 64.9356C51.5417 64.9356 46.8131 60.207 46.8131 54.3735ZM49.2505 54.3735C49.2505 58.2977 52.0454 61.58 55.7503 62.3357C56.2703 62.4412 56.8147 62.4982 57.3752 62.4982C57.9358 62.4982 58.4802 62.4412 59.0002 62.3357C62.705 61.58 65.4999 58.2977 65.4999 54.3735C65.4999 54.211 65.4917 54.0566 65.4836 53.9023C65.4097 52.5941 65.0279 51.3754 64.4112 50.3112C63.0056 47.8818 60.3814 46.2488 57.3752 46.2488C54.3691 46.2488 51.7449 47.8818 50.3393 50.3112C49.7218 51.3754 49.3408 52.5941 49.2668 53.9023C49.2587 54.0566 49.2505 54.211 49.2505 54.3735Z" fill="#656D78"/>
</g>
<g style="mix-blend-mode:luminosity">
<path d="M50.063 27.5621V32.4369L46.8131 29.187C46.8131 29.187 42.7508 31.6244 37.876 31.6244C33.0012 31.6244 28.9388 29.187 28.9388 29.187L25.689 32.4369V28.3745C25.689 22.5328 30.4093 17.8125 36.251 17.8125H44.3757V21.8748C47.5199 21.8748 50.063 24.4179 50.063 27.5621Z" fill="#965353"/>
</g>
<g style="mix-blend-mode:luminosity">
<path d="M50.063 32.4369V27.5621C50.063 24.4179 47.5199 21.8748 44.3757 21.8748V17.8125H41.1259V21.8748C41.1259 23.6695 42.581 25.1247 44.3757 25.1247C45.7196 25.1247 46.8131 26.2182 46.8131 27.5621V29.187L50.063 32.4369Z" fill="#844747"/>
</g>
<g style="mix-blend-mode:luminosity">
<path d="M50.063 32.4369V37.3117C50.063 41.9915 47.4306 46.0538 43.5633 48.0932C41.8653 48.9869 39.9315 49.4987 37.876 49.4987C35.8205 49.4987 33.8867 48.9869 32.1887 48.0932C28.3214 46.0538 25.689 41.9915 25.689 37.3117V32.4369L28.9388 29.187C28.9388 29.187 33.0012 31.6244 37.876 31.6244C42.7508 31.6244 46.8131 29.187 46.8131 29.187L50.063 32.4369Z" fill="#EAC6BB"/>
</g>
<g style="mix-blend-mode:luminosity">
<path d="M46.8131 29.187L46.8099 29.1887V37.3117C46.8099 41.9915 44.1775 46.0538 40.3101 48.0932C39.0687 48.7472 37.6988 49.1932 36.2494 49.3882C36.7816 49.4589 37.3235 49.4987 37.876 49.4987C39.9316 49.4987 41.8653 48.9869 43.5633 48.0932C47.4306 46.0538 50.063 41.9915 50.063 37.3117V32.4369L46.8131 29.187Z" fill="#D3B1A9"/>
</g>
<g style="mix-blend-mode:luminosity">
<path d="M43.5633 48.0931V52.7486L41.1259 54.3735L37.876 53.561L34.6261 54.3735L32.1887 52.7486V48.0931C33.8867 48.9868 35.8205 49.4987 37.876 49.4987C39.9315 49.4987 41.8653 48.9868 43.5633 48.0931Z" fill="#87BCF4"/>
</g>
<g style="mix-blend-mode:luminosity">
<path d="M20.8125 60.0622C20.3632 60.0622 20 59.6991 20 59.2497C20 55.2176 23.28 51.9375 27.3122 51.9375C27.7616 51.9375 28.1247 52.3007 28.1247 52.75C28.1247 53.1994 27.7616 53.5625 27.3122 53.5625C24.177 53.5625 21.6249 56.1145 21.6249 59.2497C21.6249 59.6991 21.2619 60.0622 20.8125 60.0622Z" fill="black"/>
</g>
<g style="mix-blend-mode:luminosity">
<path d="M32.187 53.5627L27.3122 53.5618C26.863 53.5618 26.4998 53.1978 26.4998 52.7494C26.4998 52.3001 26.8637 51.9369 27.3122 51.9369L32.187 51.9378C32.6364 51.9378 32.9995 52.3018 32.9995 52.7503C32.9995 53.1995 32.6355 53.5627 32.187 53.5627Z" fill="black"/>
</g>
<g style="mix-blend-mode:luminosity">
<path d="M46.9383 53.5626L43.5617 53.561C43.1123 53.561 42.7491 53.197 42.7491 52.7486C42.7491 52.2993 43.1131 51.9361 43.5617 51.9361L46.9383 51.9377C47.3876 51.9377 47.7508 52.3016 47.7508 52.7501C47.7508 53.1995 47.3868 53.5626 46.9383 53.5626Z" fill="black"/>
</g>
<g style="mix-blend-mode:luminosity">
<path d="M20.8142 65.7481C20.3657 65.7481 20.0017 65.3849 20.0017 64.9356L20 59.2491C20 58.8006 20.3632 58.4366 20.8125 58.4366C21.2609 58.4366 21.6249 58.7999 21.6249 59.2491L21.6266 64.9356C21.6266 65.3841 21.2634 65.7481 20.8142 65.7481Z" fill="black"/>
</g>
<g style="mix-blend-mode:luminosity">
<path d="M32.187 53.5626C31.7377 53.5626 31.3745 53.1995 31.3745 52.7501V48.094C31.3745 47.6446 31.7377 47.2815 32.187 47.2815C32.6364 47.2815 32.9995 47.6446 32.9995 48.094V52.7501C32.9995 53.1995 32.6364 53.5626 32.187 53.5626Z" fill="black"/>
</g>
<g style="mix-blend-mode:luminosity">
<path d="M43.5616 53.5611C43.1123 53.5611 42.7491 53.1978 42.7491 52.7486V48.094C42.7491 47.6446 43.1123 47.2815 43.5616 47.2815C44.0109 47.2815 44.374 47.6446 44.374 48.094V52.7486C44.374 53.1978 44.0109 53.5611 43.5616 53.5611Z" fill="black"/>
</g>
<g style="mix-blend-mode:luminosity">
<path d="M37.8743 50.312C30.7068 50.312 24.8748 44.4802 24.8748 37.3125C24.8748 36.8632 25.238 36.5 25.6873 36.5C26.1367 36.5 26.4998 36.8632 26.4998 37.3125C26.4998 43.5847 31.602 48.687 37.8743 48.687C44.1465 48.687 49.2488 43.5847 49.2488 37.3125C49.2488 36.8632 49.6121 36.5 50.0613 36.5C50.5107 36.5 50.8738 36.8632 50.8738 37.3125C50.8738 44.4802 45.042 50.312 37.8743 50.312Z" fill="black"/>
</g>
<g style="mix-blend-mode:luminosity">
<path d="M25.6873 38.1249C25.238 38.1249 24.8748 37.7619 24.8748 37.3125V28.3745C24.8748 27.9253 25.238 27.5621 25.6873 27.5621C26.1367 27.5621 26.4998 27.9253 26.4998 28.3745V37.3125C26.4998 37.7619 26.1367 38.1249 25.6873 38.1249Z" fill="black"/>
</g>
<g style="mix-blend-mode:luminosity">
<path d="M50.0613 38.1249C49.612 38.1249 49.2488 37.7617 49.2488 37.3125V27.5638C49.2488 27.1144 49.612 26.7513 50.0613 26.7513C50.5107 26.7513 50.8738 27.1144 50.8738 27.5638V37.3125C50.8738 37.7617 50.5107 38.1249 50.0613 38.1249Z" fill="black"/>
</g>
<g style="mix-blend-mode:luminosity">
<path d="M50.0614 28.3763C49.612 28.3763 49.249 28.0131 49.249 27.5638C49.249 24.8752 47.0626 22.689 44.374 22.689C43.9248 22.689 43.5616 22.3258 43.5616 21.8765C43.5616 21.4271 43.9248 21.0641 44.374 21.0641C47.9578 21.0641 50.8739 23.98 50.8739 27.5638C50.8739 28.0131 50.5107 28.3763 50.0614 28.3763Z" fill="black"/>
</g>
<g style="mix-blend-mode:luminosity">
<path d="M44.3742 22.6888C43.9248 22.6888 43.5616 22.3258 43.5616 21.8764V17.8125C43.5616 17.3632 43.9248 17 44.3742 17C44.8234 17 45.1866 17.3632 45.1866 17.8125V21.8764C45.1866 22.3258 44.8234 22.6888 44.3742 22.6888Z" fill="black"/>
</g>
<g style="mix-blend-mode:luminosity">
<path d="M44.3742 18.6249H36.2494C35.8001 18.6249 35.4369 18.2617 35.4369 17.8125C35.4369 17.3632 35.8001 17 36.2494 17H44.3742C44.8234 17 45.1866 17.3632 45.1866 17.8125C45.1866 18.2617 44.8234 18.6249 44.3742 18.6249Z" fill="black"/>
</g>
<g style="mix-blend-mode:luminosity">
<path d="M25.6873 29.187C25.238 29.187 24.8748 28.8238 24.8748 28.3745C24.8748 22.1023 29.9772 17 36.2495 17C36.6988 17 37.062 17.3632 37.062 17.8125C37.062 18.2617 36.6988 18.6249 36.2495 18.6249C30.8733 18.6249 26.4998 22.9985 26.4998 28.3745C26.4998 28.8238 26.1367 29.187 25.6873 29.187Z" fill="black"/>
</g>
<g style="mix-blend-mode:luminosity">
<path d="M50.0613 33.2493C49.8533 33.2493 49.6453 33.1696 49.487 33.0113L46.2371 29.7614C45.9194 29.4437 45.9194 28.9303 46.2371 28.6125C46.5548 28.2948 47.0683 28.2948 47.3859 28.6125L50.6358 31.8624C50.9535 32.1801 50.9535 32.6936 50.6358 33.0113C50.4773 33.1696 50.2693 33.2493 50.0613 33.2493Z" fill="black"/>
</g>
<g style="mix-blend-mode:luminosity">
<path d="M37.8743 32.4369C32.8322 32.4369 28.6926 29.9873 28.5188 29.8833C28.1345 29.6525 28.0102 29.1545 28.2401 28.7694C28.4701 28.3859 28.9664 28.2584 29.3541 28.4891C29.3938 28.5135 33.2952 30.812 37.8743 30.812C42.4534 30.812 46.3549 28.5135 46.3939 28.4899C46.7822 28.2591 47.2779 28.3868 47.5078 28.7703C47.7377 29.1553 47.6134 29.6533 47.2291 29.8841C47.0561 29.9873 42.9165 32.4369 37.8743 32.4369Z" fill="black"/>
</g>
<g style="mix-blend-mode:luminosity">
<path d="M25.6874 33.249C25.4794 33.249 25.2714 33.1694 25.113 33.0109C24.7953 32.6932 24.7953 32.1798 25.113 31.8622L28.3628 28.6123C28.6806 28.2946 29.194 28.2946 29.5116 28.6123C29.8293 28.9299 29.8293 29.4434 29.5116 29.7611L26.2617 33.0109C26.1034 33.1694 25.8954 33.249 25.6874 33.249Z" fill="black"/>
</g>
<g style="mix-blend-mode:luminosity">
<path d="M34.6236 55.186C34.4693 55.186 34.3124 55.1413 34.1736 55.0495L31.7362 53.4262C31.3632 53.1776 31.2617 52.673 31.511 52.2993C31.7597 51.9256 32.2627 51.8256 32.638 52.0743L35.0754 53.6975C35.4483 53.9462 35.5499 54.4507 35.3004 54.8245C35.1444 55.0592 34.8861 55.186 34.6236 55.186Z" fill="black"/>
</g>
<g style="mix-blend-mode:luminosity">
<path d="M34.6236 55.186C34.2596 55.186 33.929 54.9398 33.8364 54.5701C33.7266 54.1346 33.9916 53.6943 34.4278 53.5853L37.6777 52.7738C38.1116 52.6641 38.5536 52.9281 38.6624 53.3653C38.7721 53.8008 38.5072 54.241 38.0709 54.35L34.8211 55.1615C34.7553 55.1778 34.6886 55.186 34.6236 55.186Z" fill="black"/>
</g>
<g style="mix-blend-mode:luminosity">
<path d="M41.1251 55.186C40.8626 55.186 40.6043 55.0592 40.4483 54.8245C40.1988 54.4507 40.3004 53.9462 40.6733 53.6975L43.1107 52.0743C43.4845 51.8256 43.9882 51.9256 44.2377 52.2993C44.487 52.673 44.3855 53.1776 44.0125 53.4262L41.5751 55.0495C41.4363 55.1413 41.2794 55.186 41.1251 55.186Z" fill="black"/>
</g>
<g style="mix-blend-mode:luminosity">
<path d="M41.1251 55.186C41.0601 55.186 40.9934 55.1778 40.9276 55.1616L37.6777 54.35C37.2422 54.2411 36.9773 53.8008 37.0862 53.3653C37.1943 52.9306 37.6347 52.6641 38.071 52.7738L41.3208 53.5855C41.7563 53.6943 42.0211 54.1347 41.9123 54.5701C41.8196 54.939 41.489 55.186 41.1251 55.186Z" fill="black"/>
</g>
<g style="mix-blend-mode:luminosity">
<path d="M37.8987 58.4358C37.4495 58.4358 37.0822 58.0726 37.0822 57.6234C37.0822 57.1741 37.4413 56.8109 37.8898 56.8109H37.8987C38.3472 56.8109 38.7112 57.1741 38.7112 57.6234C38.7112 58.0726 38.3472 58.4358 37.8987 58.4358Z" fill="black"/>
</g>
<g style="mix-blend-mode:luminosity">
<path d="M37.8987 63.3115C37.4495 63.3115 37.0822 62.9483 37.0822 62.499C37.0822 62.0497 37.4413 61.6865 37.8898 61.6865H37.8987C38.3472 61.6865 38.7112 62.0497 38.7112 62.499C38.7112 62.9483 38.3472 63.3115 37.8987 63.3115Z" fill="black"/>
</g>
<g style="mix-blend-mode:luminosity">
<path d="M57.3768 65.7481C51.1046 65.7481 46.0023 60.645 46.0023 54.3711C46.0023 48.0988 51.1046 42.9957 57.3768 42.9957C63.649 42.9957 68.7513 48.0988 68.7513 54.3711C68.7513 60.645 63.649 65.7481 57.3768 65.7481ZM57.3768 44.6207C52.0007 44.6207 47.6273 48.995 47.6273 54.3711C47.6273 59.748 52.0007 64.1231 57.3768 64.1231C62.753 64.1231 67.1264 59.748 67.1264 54.3711C67.1264 48.995 62.753 44.6207 57.3768 44.6207Z" fill="black"/>
</g>
<g style="mix-blend-mode:luminosity">
<path d="M57.3767 63.3106C52.4492 63.3106 48.4397 59.3003 48.4397 54.371C48.4397 49.4427 52.4492 45.4331 57.3767 45.4331C62.3045 45.4331 66.3139 49.4427 66.3139 54.371C66.3139 59.3003 62.3045 63.3106 57.3767 63.3106ZM57.3767 47.058C53.3446 47.058 50.0647 50.3387 50.0647 54.371C50.0647 58.4041 53.3446 61.6857 57.3767 61.6857C61.4091 61.6857 64.689 58.4041 64.689 54.371C64.689 50.3387 61.4091 47.058 57.3767 47.058Z" fill="black"/>
</g>
<g style="mix-blend-mode:luminosity">
<path d="M57.3769 56.8077C56.033 56.8077 54.9395 55.714 54.9395 54.3703C54.9395 53.0264 56.033 51.9321 57.3769 51.9321C58.7206 51.9321 59.8143 53.0264 59.8143 54.3703C59.8143 55.714 58.7206 56.8077 57.3769 56.8077ZM57.3769 53.557C56.9284 53.557 56.5644 53.9218 56.5644 54.3703C56.5644 54.8187 56.9284 55.1827 57.3769 55.1827C57.8254 55.1827 58.1894 54.8187 58.1894 54.3703C58.1894 53.9218 57.8254 53.557 57.3769 53.557Z" fill="black"/>
</g>
<g style="mix-blend-mode:luminosity">
<path d="M64.4144 51.1204H50.3392C49.89 51.1204 49.5268 50.7572 49.5268 50.3079C49.5268 49.8587 49.89 49.4955 50.3392 49.4955H64.4144C64.8637 49.4955 65.2269 49.8587 65.2269 50.3079C65.2269 50.7572 64.8637 51.1204 64.4144 51.1204Z" fill="black"/>
</g>
<g style="mix-blend-mode:luminosity">
<path d="M59.0034 63.1392C58.9986 63.1392 58.9928 63.1392 58.9879 63.1392C58.5386 63.1303 58.1819 62.7598 58.1909 62.3114C58.2729 57.9931 61.1158 54.2995 65.2651 53.1198C65.6981 52.9955 66.1458 53.2475 66.2685 53.6788C66.3911 54.1102 66.1409 54.5595 65.7095 54.6822C62.2525 55.6654 59.8841 58.743 59.8158 62.3414C59.8069 62.7857 59.4454 63.1392 59.0034 63.1392Z" fill="black"/>
</g>
<g style="mix-blend-mode:luminosity">
<path d="M55.7535 63.1474C55.3115 63.1474 54.9492 62.7922 54.941 62.3495C54.8768 58.7454 52.5086 55.6645 49.0466 54.6822C48.6143 54.5603 48.3641 54.111 48.4868 53.6796C48.6087 53.2473 49.0595 52.9948 49.4894 53.1198C53.6451 54.2987 56.4888 57.9963 56.566 62.321C56.5742 62.7695 56.2167 63.14 55.7682 63.1481C55.7633 63.1474 55.7584 63.1474 55.7535 63.1474Z" fill="black"/>
</g>
</g>
<defs>
<filter id="filter0_ii" x="-4" y="-4" width="89" height="89" filterUnits="userSpaceOnUse" color-interpolation-filters="sRGB">
<feFlood flood-opacity="0" result="BackgroundImageFix"/>
<feBlend mode="normal" in="SourceGraphic" in2="BackgroundImageFix" result="shape"/>
<feColorMatrix in="SourceAlpha" type="matrix" values="0 0 0 0 0 0 0 0 0 0 0 0 0 0 0 0 0 0 127 0" result="hardAlpha"/>
<feOffset dx="4" dy="4"/>
<feGaussianBlur stdDeviation="2"/>
<feComposite in2="hardAlpha" operator="arithmetic" k2="-1" k3="1"/>
<feColorMatrix type="matrix" values="0 0 0 0 0 0 0 0 0 0 0 0 0 0 0 0 0 0 0.25 0"/>
<feBlend mode="normal" in2="shape" result="effect1_innerShadow"/>
<feColorMatrix in="SourceAlpha" type="matrix" values="0 0 0 0 0 0 0 0 0 0 0 0 0 0 0 0 0 0 127 0" result="hardAlpha"/>
<feOffset dx="-6" dy="-6"/>
<feGaussianBlur stdDeviation="2"/>
<feComposite in2="hardAlpha" operator="arithmetic" k2="-1" k3="1"/>
<feColorMatrix type="matrix" values="0 0 0 0 1 0 0 0 0 0.988235 0 0 0 0 0.890196 0 0 0 0.88 0"/>
<feBlend mode="normal" in2="effect1_innerShadow" result="effect2_innerShadow"/>
</filter>
</defs>
</svg>
