<svg width="62" height="62" viewBox="0 0 62 62" fill="none" xmlns="http://www.w3.org/2000/svg">
<path fill-rule="evenodd" clip-rule="evenodd" d="M34.0012 50.2605L41.9197 36.2317C47.0091 32.7463 50.3486 26.8914 50.3486 20.2568C50.3486 9.57028 41.6859 0.908081 30.9998 0.908081C20.3137 0.908081 11.6512 9.57065 11.6512 20.2568C11.6512 26.8914 14.9907 32.7463 20.0802 36.2317L27.9986 50.2605L30.9999 55.5782L34.0012 50.2605ZM30.9999 5.01691C39.4267 5.01691 46.2577 11.8481 46.2577 20.2747C46.2577 28.7014 39.4267 35.5325 30.9999 35.5325C22.5731 35.5325 15.7421 28.7014 15.7421 20.2747C15.7421 11.8481 22.5731 5.01691 30.9999 5.01691Z" fill="#A7EED4"/>
<path fill-rule="evenodd" clip-rule="evenodd" d="M30.382 49.0336L22.4635 35.0049C20.3154 33.5338 18.4791 31.6402 17.0724 29.4424C16.4418 28.4872 15.9114 27.469 15.4897 26.4043C14.5519 24.1316 14.0347 21.641 14.0347 19.03C14.0347 12.0094 17.7739 5.86203 23.3697 2.47079C16.4779 5.43129 11.6512 12.2805 11.6512 20.2568C11.6512 26.8914 14.9907 32.7463 20.0804 36.2319L27.9986 50.2606L31 55.5782L32.5382 52.8533L30.382 49.0336Z" fill="#71E4BF"/>
<path d="M45.6226 24.6564C48.0411 16.5837 43.4574 8.07887 35.3846 5.66042C27.3119 3.24197 18.8071 7.82568 16.3886 15.8984C13.9702 23.9711 18.5539 32.4759 26.6266 34.8944C34.6994 37.3128 43.2042 32.7291 45.6226 24.6564Z" fill="#F7EC91"/>
<path fill-rule="evenodd" clip-rule="evenodd" d="M15.7422 20.2747C15.7422 28.7014 22.5732 35.5325 31 35.5325C31.6146 35.5325 32.2206 35.4962 32.816 35.4255C32.7652 35.4196 32.7144 35.4131 32.6636 35.4066C25.1668 34.441 19.3744 28.0344 19.3744 20.2747C19.3744 12.4626 25.2453 6.02198 32.8156 5.12383C32.2201 5.05323 31.6143 5.01691 31 5.01691C22.5732 5.01691 15.7422 11.848 15.7422 20.2747Z" fill="#EDD52E"/>
<path fill-rule="evenodd" clip-rule="evenodd" d="M33.9686 50.3185C38.7816 50.9463 42.3224 53.0629 42.3224 55.578C42.3224 58.5876 37.2533 61.0273 31 61.0273C24.7467 61.0273 19.6776 58.5876 19.6776 55.578C19.6776 53.0629 23.2185 50.9463 28.0314 50.3185L31 55.578L33.9686 50.3185Z" fill="#ED9B88"/>
<path fill-rule="evenodd" clip-rule="evenodd" d="M19.6776 55.5782C19.6776 58.5876 24.7467 61.0274 31 61.0274C34.3154 61.0274 37.298 60.3415 39.3686 59.2485C40.1818 58.8192 40.8545 58.3272 41.3513 57.7895C41.3178 57.8042 41.284 57.8188 41.25 57.8333C39.2495 58.6904 36.6132 59.2112 33.7242 59.2112C27.471 59.2112 22.4019 56.7714 22.4019 53.762C22.4019 52.9825 22.7419 52.2414 23.3543 51.571C23.0678 51.6938 22.7941 51.8235 22.5348 51.9596C22.5328 51.9607 22.5308 51.9618 22.529 51.9628C20.755 52.9248 19.6776 54.1908 19.6776 55.5782V55.5782Z" fill="#E76C4C"/>
<path d="M41.4288 17.7773C41.2848 17.1739 41.0861 16.5776 40.8382 16.0053L42.5052 15.2836C42.7948 15.9527 43.0272 16.6498 43.1955 17.3558L41.4288 17.7773ZM40.0557 14.5254C39.0512 12.9377 37.6465 11.6394 35.9935 10.7712L36.8383 9.16318C38.7729 10.1795 40.4163 11.698 41.5907 13.5545L40.0557 14.5254Z" fill="white"/>
<path d="M51.2569 20.2568C51.2569 9.08712 42.1697 0 31 0C28.0963 0 25.2925 0.601715 22.6667 1.78831L23.4148 3.44354C25.8039 2.36387 28.3559 1.81641 31 1.81641C41.1683 1.81641 49.4405 10.0887 49.4405 20.2568C49.4405 26.3453 46.4372 32.0372 41.4066 35.4823L41.2326 35.6016L31 53.7304L20.7676 35.6016L20.5935 35.4824C15.5628 32.0372 12.5594 26.3454 12.5594 20.2569C12.5594 13.7087 16.0813 7.59476 21.7508 4.30113L20.8383 2.73054C17.8236 4.48192 15.2956 6.99619 13.5278 10.0013C11.7059 13.0982 10.743 16.6445 10.743 20.2568C10.743 26.8738 13.9721 33.064 19.3919 36.8596L26.621 49.6674C21.8008 50.5603 18.6492 52.8791 18.6492 55.6425C18.6492 57.4661 20.0096 59.1252 22.4797 60.314C24.7386 61.4012 27.7219 61.9999 30.8798 61.9999C34.0377 61.9999 37.0208 61.4012 39.2797 60.314C41.7498 59.1252 43.1102 57.4661 43.1102 55.6425C43.1102 54.8268 42.8371 54.0389 42.2984 53.3011L40.8314 54.3721C41.1382 54.7925 41.2938 55.2198 41.2938 55.6426C41.2938 57.7904 37.0169 60.1836 30.8798 60.1836C24.7425 60.1836 20.4656 57.7904 20.4656 55.6426C20.4656 53.7795 23.4803 51.982 27.5703 51.3494L31 57.4257L34.4098 51.3847C36.6007 51.7464 38.4839 52.4344 39.7573 53.3474L40.8156 51.8712C39.4537 50.8949 37.5459 50.1452 35.3544 49.7109L42.6082 36.8597C48.028 33.0642 51.2569 26.874 51.2569 20.2568V20.2568Z" fill="black"/>
<path d="M43.8664 30.0144C46.0132 27.1877 47.1482 23.8134 47.1482 20.2566C47.1481 11.3525 39.9042 4.1087 31 4.1087C22.0959 4.1087 14.8518 11.3525 14.8518 20.2566C14.8518 29.1606 22.0958 36.4047 31 36.4047C35.2812 36.4047 39.315 34.7458 42.3584 31.7338L41.0807 30.4428C38.3796 33.1161 34.7996 34.5882 31 34.5882C23.0974 34.5882 16.6682 28.1591 16.6682 20.2566C16.6682 12.3541 23.0974 5.92511 31 5.92511C38.9026 5.92511 45.3318 12.3542 45.3318 20.2567C45.3318 23.4135 44.3249 26.4078 42.4199 28.916L43.8664 30.0144Z" fill="black"/>
<path d="M33.7249 24.9366H29.1018L28.2229 27.5733H25.4192L30.1829 14.7765H32.6262L37.4163 27.5733H34.6126L33.7249 24.9366ZM29.8137 22.8009H33.013L31.4046 18.0108L29.8137 22.8009Z" fill="black"/>
</svg>
