<svg width="81" height="81" viewBox="0 0 81 81" fill="none" xmlns="http://www.w3.org/2000/svg">
<g filter="url(#filter0_ii)">
<path d="M40.5 81C62.8675 81 81 62.8675 81 40.5C81 18.1325 62.8675 0 40.5 0C18.1325 0 0 18.1325 0 40.5C0 62.8675 18.1325 81 40.5 81Z" fill="#F7EC91"/>
</g>
<g style="mix-blend-mode:darken">
<g style="mix-blend-mode:luminosity">
<g style="mix-blend-mode:luminosity">
<path d="M67.4852 52.0298H18.3694C18.0328 52.0298 17.7601 51.7571 17.7601 51.4207V47.1873C17.7601 46.8509 18.0328 46.5781 18.3694 46.5781H67.4852C67.8216 46.5781 68.0944 46.8509 68.0944 47.1873V51.4207C68.0944 51.7571 67.8216 52.0298 67.4852 52.0298Z" fill="#5A5A5A"/>
</g>
<g style="mix-blend-mode:luminosity">
<path d="M57.7777 30.7602H28.0766C26.312 30.7602 24.7577 31.9212 24.257 33.6133L20.4208 46.5781H65.4336L61.5974 33.6133C61.0969 31.9212 59.5424 30.7602 57.7777 30.7602Z" fill="#FAC600"/>
</g>
<g style="mix-blend-mode:luminosity">
<path d="M65.4334 46.5784H62.6485L58.8124 33.613C58.3118 31.9216 56.757 30.7601 54.9926 30.7601H57.7777C59.5421 30.7601 61.0967 31.9216 61.5974 33.613L65.4334 46.5784Z" fill="#E0AE10"/>
</g>
<g style="mix-blend-mode:luminosity">
<path d="M49.5862 42.5996H51.9899C52.4116 42.5996 52.7534 42.2579 52.7534 41.8363V39.4326C52.7534 39.0109 52.4116 38.6691 51.9899 38.6691H48.8229V41.8363C48.8228 42.2577 49.1647 42.5996 49.5862 42.5996Z" fill="#5A5A5A"/>
</g>
<g style="mix-blend-mode:luminosity">
<path d="M41.7253 42.5996H44.129C44.5507 42.5996 44.8925 42.2579 44.8925 41.8363V38.6691H40.962V41.8363C40.962 42.2577 41.3038 42.5996 41.7253 42.5996Z" fill="#5A5A5A"/>
</g>
<g style="mix-blend-mode:luminosity">
<path d="M33.8645 42.5996H36.2682C36.6898 42.5996 37.0315 42.2579 37.0315 41.8363V38.6691H33.8645C33.4428 38.6691 33.101 39.0109 33.101 39.4326V41.8363C33.101 42.2577 33.4429 42.5996 33.8645 42.5996Z" fill="#5A5A5A"/>
</g>
<g style="mix-blend-mode:luminosity">
<path d="M44.8923 38.6691H48.8228V35.502C48.8228 35.0804 48.481 34.7387 48.0595 34.7387H45.6558C45.2341 34.7387 44.8923 35.0804 44.8923 35.502V38.6691Z" fill="#5A5A5A"/>
</g>
<g style="mix-blend-mode:luminosity">
<path d="M37.0316 38.6691H40.962V35.502C40.962 35.0804 40.6203 34.7387 40.1986 34.7387H37.7949C37.3733 34.7387 37.0316 35.0804 37.0316 35.502V38.6691Z" fill="#5A5A5A"/>
</g>
<g style="mix-blend-mode:luminosity">
<path d="M67.4852 45.8181H66.0012L62.3263 33.3978C61.7344 31.3972 59.8639 30.0001 57.7776 30.0001H54.3288C53.9089 30.0001 53.5686 30.3404 53.5686 30.7602C53.5686 31.1801 53.9089 31.5202 54.3288 31.5202H57.7776C59.1953 31.5202 60.4663 32.4698 60.8686 33.8291L64.4159 45.8182H21.4385L24.9858 33.8291C25.3881 32.4697 26.659 31.5202 28.0767 31.5202H50.7881C51.208 31.5202 51.5482 31.1799 51.5482 30.7601C51.5482 30.3403 51.208 30 50.7881 30H28.0767C25.9905 30 24.12 31.3972 23.5281 33.3976L19.8532 45.8181H18.3693C17.6142 45.8181 17 46.4323 17 47.1873V51.4207C17 52.1757 17.6142 52.79 18.3693 52.79H26.8636C27.2836 52.79 27.6238 52.4497 27.6238 52.03C27.6238 51.6101 27.2835 51.2698 26.8636 51.2698H18.5202V47.3382H20.4208H65.4336H67.3342V51.2698H30.394C29.974 51.2698 29.6338 51.6101 29.6338 52.03C29.6338 52.4497 29.9741 52.79 30.394 52.79H67.4852C68.2402 52.79 68.8544 52.1757 68.8544 51.4207V47.1873C68.8544 46.4323 68.2402 45.8181 67.4852 45.8181Z" fill="black"/>
</g>
<g style="mix-blend-mode:luminosity">
<path d="M49.583 35.502C49.583 34.662 48.8996 33.9787 48.0596 33.9787H45.6559C44.8157 33.9787 44.1324 34.662 44.1324 35.502V37.909H41.7223V35.502C41.7223 34.662 41.0389 33.9787 40.1989 33.9787H37.7952C36.955 33.9787 36.2717 34.662 36.2717 35.502V37.909H33.8647C33.0247 37.909 32.3414 38.5924 32.3414 39.4324V41.8363C32.3414 42.6763 33.0247 43.3596 33.8647 43.3596H36.2684C37.1086 43.3596 37.7919 42.6763 37.7919 41.8363V39.4293H40.2022V41.8363C40.2022 42.6763 40.8857 43.3596 41.7256 43.3596H44.1294C44.9695 43.3596 45.6529 42.6763 45.6529 41.8363V39.4293H48.0632V41.8363C48.0632 42.6763 48.7467 43.3596 49.5867 43.3596H51.9904C52.8303 43.3596 53.5138 42.6763 53.5138 41.8363V39.4324C53.5138 38.5924 52.8303 37.909 51.9904 37.909H49.5835V35.502H49.583ZM36.2682 41.8394H33.8645L33.8613 41.8363L33.8645 39.4293H36.2706L36.2682 41.8394ZM37.7949 35.4988L40.2018 35.502V37.909H37.7924L37.7949 35.4988ZM44.129 41.8394H41.7252L41.7221 39.4293H44.1315L44.129 41.8394ZM45.6558 35.4988L48.0627 35.502V37.909H45.6532L45.6558 35.4988ZM51.9931 39.4324L51.99 41.8394H49.5862L49.583 39.43L51.9931 39.4324Z" fill="black"/>
</g>
</g>
</g>
<defs>
<filter id="filter0_ii" x="-4" y="-4" width="89" height="89" filterUnits="userSpaceOnUse" color-interpolation-filters="sRGB">
<feFlood flood-opacity="0" result="BackgroundImageFix"/>
<feBlend mode="normal" in="SourceGraphic" in2="BackgroundImageFix" result="shape"/>
<feColorMatrix in="SourceAlpha" type="matrix" values="0 0 0 0 0 0 0 0 0 0 0 0 0 0 0 0 0 0 127 0" result="hardAlpha"/>
<feOffset dx="4" dy="4"/>
<feGaussianBlur stdDeviation="2"/>
<feComposite in2="hardAlpha" operator="arithmetic" k2="-1" k3="1"/>
<feColorMatrix type="matrix" values="0 0 0 0 0 0 0 0 0 0 0 0 0 0 0 0 0 0 0.25 0"/>
<feBlend mode="normal" in2="shape" result="effect1_innerShadow"/>
<feColorMatrix in="SourceAlpha" type="matrix" values="0 0 0 0 0 0 0 0 0 0 0 0 0 0 0 0 0 0 127 0" result="hardAlpha"/>
<feOffset dx="-6" dy="-6"/>
<feGaussianBlur stdDeviation="2"/>
<feComposite in2="hardAlpha" operator="arithmetic" k2="-1" k3="1"/>
<feColorMatrix type="matrix" values="0 0 0 0 1 0 0 0 0 0.988235 0 0 0 0 0.890196 0 0 0 0.88 0"/>
<feBlend mode="normal" in2="effect1_innerShadow" result="effect2_innerShadow"/>
</filter>
</defs>
</svg>
