<svg width="81" height="81" viewBox="0 0 81 81" fill="none" xmlns="http://www.w3.org/2000/svg">
<g filter="url(#filter0_ii)">
<path d="M40.5 81C62.8675 81 81 62.8675 81 40.5C81 18.1325 62.8675 0 40.5 0C18.1325 0 0 18.1325 0 40.5C0 62.8675 18.1325 81 40.5 81Z" fill="#F7EC91"/>
</g>
<g style="mix-blend-mode:darken">
<g style="mix-blend-mode:luminosity">
<path d="M27.8094 65.0235C26.2992 65.0235 25.075 63.7992 25.075 62.2891V58.2852H30.5437V62.2891C30.5437 63.7992 29.3195 65.0235 27.8094 65.0235Z" fill="#898998"/>
</g>
<g style="mix-blend-mode:luminosity">
<path d="M52.2154 65.0235C50.7053 65.0235 49.481 63.7992 49.481 62.2891V58.2852H54.9498V62.2891C54.9498 63.7992 53.7255 65.0235 52.2154 65.0235Z" fill="#898998"/>
</g>
<g style="mix-blend-mode:luminosity">
<path d="M62.0702 33.8019C60.9915 33.8019 60.1171 32.9274 60.1171 31.8488V28.1994C60.1171 27.1208 60.9915 26.2463 62.0702 26.2463C63.1488 26.2463 64.0233 27.1208 64.0233 28.1994V31.8488C64.0233 32.9274 63.1488 33.8019 62.0702 33.8019Z" fill="#898998"/>
</g>
<g style="mix-blend-mode:luminosity">
<path d="M17.9296 33.8019C19.0083 33.8019 19.8827 32.9274 19.8827 31.8488V28.1994C19.8827 27.1208 19.0083 26.2463 17.9296 26.2463C16.851 26.2463 15.9765 27.1208 15.9765 28.1994V31.8488C15.9765 32.9274 16.851 33.8019 17.9296 33.8019Z" fill="#898998"/>
</g>
<g style="mix-blend-mode:luminosity">
<path d="M53.8633 16.9765H26.1457C23.9883 16.9765 22.2394 18.7255 22.2394 20.8828V54.379C22.2394 56.5362 23.9883 58.2852 26.1457 58.2852H53.8633C56.0205 58.2852 57.7695 56.5362 57.7695 54.379V20.8828C57.7695 18.7255 56.0205 16.9765 53.8633 16.9765Z" fill="#FF5D5D"/>
</g>
<g style="mix-blend-mode:luminosity">
<path d="M57.7733 41.8134L53.6298 45.957H26.37L22.2265 41.8134V24.789H57.7695L57.7733 41.8134Z" fill="#C9F3FF"/>
</g>
<g style="mix-blend-mode:luminosity">
<path d="M28.6758 54.0742C29.7544 54.0742 30.6289 53.1998 30.6289 52.121C30.6289 51.0424 29.7544 50.1679 28.6758 50.1679C27.5972 50.1679 26.7227 51.0424 26.7227 52.121C26.7227 53.1998 27.5972 54.0742 28.6758 54.0742Z" fill="white"/>
</g>
<g style="mix-blend-mode:luminosity">
<path d="M51.3241 54.0742C52.4029 54.0742 53.2773 53.1998 53.2773 52.121C53.2773 51.0424 52.4029 50.1679 51.3241 50.1679C50.2455 50.1679 49.371 51.0424 49.371 52.121C49.371 53.1998 50.2455 54.0742 51.3241 54.0742Z" fill="white"/>
</g>
<g style="mix-blend-mode:luminosity">
<path d="M45.0859 50.1679H34.9296V54.0742H45.0859V50.1679Z" fill="#FFC66C"/>
</g>
<g style="mix-blend-mode:luminosity">
<path d="M46.4452 20.8828H33.5546V24.789H46.4452V20.8828Z" fill="white"/>
</g>
<g style="mix-blend-mode:luminosity">
<path d="M40.1543 17.9531C40.411 17.9531 40.662 17.8486 40.8446 17.6669C41.0263 17.4854 41.1308 17.2334 41.1308 16.9765C41.1308 16.7198 41.0263 16.4678 40.8446 16.2861C40.663 16.1045 40.411 16 40.1543 16C39.8974 16 39.6454 16.1044 39.4638 16.2861C39.2821 16.4679 39.1776 16.7198 39.1776 16.9765C39.1776 17.2334 39.2821 17.4854 39.4638 17.6669C39.6454 17.8486 39.8974 17.9531 40.1543 17.9531Z" fill="black"/>
</g>
<g style="mix-blend-mode:luminosity">
<path d="M63.0468 25.4376V22.6886C63.0468 21.2074 61.8417 20.0024 60.3605 20.0024H58.665C58.249 17.729 56.2549 16 53.8632 16H44.3295C43.7901 16 43.3529 16.4373 43.3529 16.9765C43.3529 17.5159 43.7901 17.9531 44.3295 17.9531H53.8632C55.4786 17.9531 56.7929 19.2674 56.7929 20.8828V23.8125H47.4219V20.8828C47.4219 20.3435 46.9846 19.9063 46.4453 19.9063H33.5546C33.0153 19.9063 32.5781 20.3435 32.5781 20.8828V23.8125H23.2159V20.8828C23.2159 19.2674 24.5301 17.9531 26.1456 17.9531H35.9473C36.4866 17.9531 36.9238 17.5159 36.9238 16.9765C36.9238 16.4373 36.4866 16 35.9473 16H26.1456C23.754 16 21.7597 17.729 21.3439 20.0024H19.6395C18.1582 20.0024 16.9531 21.2074 16.9531 22.6886V25.4376C15.8165 25.8408 15 26.9263 15 28.1994V31.8488C15 33.4642 16.3143 34.7784 17.9296 34.7784C19.5451 34.7784 20.8594 33.4642 20.8594 31.8488V28.1994C20.8594 26.9264 20.0429 25.8408 18.9062 25.4376V22.6886C18.9062 22.2844 19.2351 21.9555 19.6395 21.9555H21.2629V54.379C21.2629 56.3405 22.4261 58.0345 24.0985 58.8102V62.2891C24.0985 64.3352 25.7633 66 27.8095 66C29.8556 66 31.5204 64.3352 31.5204 62.2891V59.2617H48.5045V62.2891C48.5045 64.3352 50.1692 66 52.2155 66C54.2616 66 55.9264 64.3352 55.9264 62.2891V58.8031C57.5903 58.024 58.7461 56.3343 58.7461 54.379V21.9555H60.3605C60.7649 21.9555 61.0938 22.2844 61.0938 22.6886V25.4376C59.9571 25.8408 59.1406 26.9263 59.1406 28.1994V31.8488C59.1406 33.4642 60.4549 34.7784 62.0704 34.7784C63.6857 34.7784 65 33.4642 65 31.8488V28.1994C64.9999 26.9263 64.1834 25.8408 63.0468 25.4376ZM18.9062 31.8488C18.9062 32.3872 18.4681 32.8253 17.9296 32.8253C17.3913 32.8253 16.9531 32.3872 16.9531 31.8488V28.1994C16.9531 27.6609 17.3913 27.2229 17.9296 27.2229C18.4681 27.2229 18.9062 27.6609 18.9062 28.1994V31.8488ZM34.8518 38.9102C34.4704 38.5291 33.8521 38.5289 33.4706 38.9102L27.4004 44.9804H26.7745L23.7543 41.9602L39.0238 26.6907V44.9804H30.1626L34.8518 40.2912C35.2331 39.9099 35.2331 39.2916 34.8518 38.9102ZM46.8988 25.7656L43.8566 28.8078C43.4754 29.189 43.4754 29.8074 43.8566 30.1889C44.0474 30.3795 44.2972 30.4749 44.5472 30.4749C44.7971 30.4749 45.0471 30.3795 45.2378 30.1889L49.661 25.7656H55.407L40.9769 40.1957V25.7656H46.8988ZM40.9769 42.9579L56.7929 27.142V41.4129L53.2254 44.9804H40.9769V42.9579ZM34.5312 21.8594H45.4688V23.8125H34.5312V21.8594ZM37.1866 25.7656L23.2159 39.7363V25.7656H37.1866ZM29.5671 62.2891C29.5671 63.2584 28.7786 64.0469 27.8094 64.0469C26.8401 64.0469 26.0515 63.2584 26.0515 62.2891V59.2617H26.1456H29.5671V62.2891ZM53.9731 59.2617V62.2891C53.9731 63.2584 53.1846 64.0469 52.2154 64.0469C51.2461 64.0469 50.4575 63.2584 50.4575 62.2891V59.2617H53.8632H53.9731ZM53.8632 57.3086H26.1456C24.5301 57.3086 23.2159 55.9943 23.2159 54.379V44.1839L25.6795 46.6476C25.8626 46.8307 26.111 46.9336 26.37 46.9336H53.6299C53.8889 46.9336 54.1374 46.8307 54.3204 46.6476L56.7929 44.1751V54.379C56.7929 55.9943 55.4786 57.3086 53.8632 57.3086ZM63.0468 31.8488C63.0468 32.3872 62.6088 32.8253 62.0703 32.8253C61.5318 32.8253 61.0936 32.3872 61.0936 31.8488V28.1994C61.0936 27.6609 61.5318 27.2229 62.0703 27.2229C62.6088 27.2229 63.0468 27.6609 63.0468 28.1994V31.8488Z" fill="black"/>
</g>
<g style="mix-blend-mode:luminosity">
<path d="M28.6761 49.1915C27.0607 49.1915 25.7465 50.5057 25.7465 52.1211C25.7465 53.7366 27.0607 55.0508 28.6761 55.0508C30.2916 55.0508 31.6059 53.7366 31.6059 52.1211C31.6059 50.5057 30.2916 49.1915 28.6761 49.1915ZM28.6761 53.0977C28.1376 53.0977 27.6996 52.6596 27.6996 52.1211C27.6996 51.5826 28.1376 51.1446 28.6761 51.1446C29.2146 51.1446 29.6527 51.5826 29.6527 52.1211C29.6527 52.6596 29.2146 53.0977 28.6761 53.0977Z" fill="black"/>
</g>
<g style="mix-blend-mode:luminosity">
<path d="M51.3238 49.1915C49.7084 49.1915 48.3942 50.5057 48.3942 52.1211C48.3942 53.7366 49.7084 55.0508 51.3238 55.0508C52.9392 55.0508 54.2535 53.7366 54.2535 52.1211C54.2535 50.5057 52.9392 49.1915 51.3238 49.1915ZM51.3238 53.0977C50.7853 53.0977 50.3473 52.6596 50.3473 52.1211C50.3473 51.5826 50.7853 51.1446 51.3238 51.1446C51.8623 51.1446 52.3004 51.5826 52.3004 52.1211C52.3004 52.6596 51.8623 53.0977 51.3238 53.0977Z" fill="black"/>
</g>
<g style="mix-blend-mode:luminosity">
<path d="M45.0861 49.1915H34.9299C34.3906 49.1915 33.9534 49.6287 33.9534 50.168V54.0742C33.9534 54.6135 34.3906 55.0508 34.9299 55.0508H45.0861C45.6255 55.0508 46.0627 54.6135 46.0627 54.0742V50.168C46.0627 49.6286 45.6255 49.1915 45.0861 49.1915ZM44.1096 53.0977H35.9065V51.1446H44.1096V53.0977Z" fill="black"/>
</g>
</g>
<defs>
<filter id="filter0_ii" x="-4" y="-4" width="89" height="89" filterUnits="userSpaceOnUse" color-interpolation-filters="sRGB">
<feFlood flood-opacity="0" result="BackgroundImageFix"/>
<feBlend mode="normal" in="SourceGraphic" in2="BackgroundImageFix" result="shape"/>
<feColorMatrix in="SourceAlpha" type="matrix" values="0 0 0 0 0 0 0 0 0 0 0 0 0 0 0 0 0 0 127 0" result="hardAlpha"/>
<feOffset dx="4" dy="4"/>
<feGaussianBlur stdDeviation="2"/>
<feComposite in2="hardAlpha" operator="arithmetic" k2="-1" k3="1"/>
<feColorMatrix type="matrix" values="0 0 0 0 0 0 0 0 0 0 0 0 0 0 0 0 0 0 0.25 0"/>
<feBlend mode="normal" in2="shape" result="effect1_innerShadow"/>
<feColorMatrix in="SourceAlpha" type="matrix" values="0 0 0 0 0 0 0 0 0 0 0 0 0 0 0 0 0 0 127 0" result="hardAlpha"/>
<feOffset dx="-6" dy="-6"/>
<feGaussianBlur stdDeviation="2"/>
<feComposite in2="hardAlpha" operator="arithmetic" k2="-1" k3="1"/>
<feColorMatrix type="matrix" values="0 0 0 0 1 0 0 0 0 0.988235 0 0 0 0 0.890196 0 0 0 0.88 0"/>
<feBlend mode="normal" in2="effect1_innerShadow" result="effect2_innerShadow"/>
</filter>
</defs>
</svg>
