<svg width="81" height="81" viewBox="0 0 81 81" fill="none" xmlns="http://www.w3.org/2000/svg">
<g filter="url(#filter0_ii)">
<path d="M40.5 81C62.8675 81 81 62.8675 81 40.5C81 18.1325 62.8675 0 40.5 0C18.1325 0 0 18.1325 0 40.5C0 62.8675 18.1325 81 40.5 81Z" fill="#F7EC91"/>
</g>
<g style="mix-blend-mode:darken">
<g style="mix-blend-mode:luminosity">
<g style="mix-blend-mode:luminosity">
<path d="M40.6203 32.3435C42.0312 31.4836 43.8852 31.775 43.8852 31.775C44.303 31.7402 44.7071 31.8049 45.0722 31.9476V31.8204C43.4559 29.7514 44.2718 27.2608 44.2718 27.2608L44.2708 26.996L43.2347 25.369L43.3275 24.4023C43.387 23.7844 42.8777 23.2515 42.2292 23.253L41.2446 23.2553C41.2446 23.2553 38.12 22.5525 36.3147 21.217H36.2173C35.7487 22.496 35.6649 24.1634 35.6649 24.1634L34.9991 25.6695C34.889 25.9186 35.0309 26.2037 35.3024 26.2788C35.5708 26.3938 36.3596 26.3674 36.4975 27.0761C36.6493 27.8561 37.1175 29.2869 38.5216 29.4788C39.8952 29.6664 40.5436 31.0519 40.6203 32.3435Z" fill="#F4D44E"/>
</g>
<g style="mix-blend-mode:luminosity">
<path d="M42.7001 31.7421C42.5875 30.4597 41.9232 29.127 40.5645 28.9413C38.7714 28.6961 37.4222 26.0639 38.3957 22.3386C37.6651 22.0365 36.9166 21.662 36.3147 21.2167H36.2173C35.7487 22.4958 35.6649 24.1631 35.6649 24.1631L34.9991 25.6691C34.889 25.9182 35.0309 26.2035 35.3024 26.2786C35.5696 26.3931 36.3596 26.3669 36.4975 27.0758C36.6493 27.8559 37.1175 29.2865 38.5216 29.4786C39.8867 29.6651 40.5426 31.0383 40.6203 32.3435C41.2359 31.9684 41.9778 31.7905 42.7001 31.7421Z" fill="#E8C842"/>
</g>
<g style="mix-blend-mode:luminosity">
<path d="M43.8851 31.5757C43.8851 31.5757 40.6547 31.0667 39.4771 33.3692C38.4352 35.4066 37.4117 40.738 38.3463 44.7533H44.2471L43.8851 31.5757Z" fill="#DB4E33"/>
</g>
<g style="mix-blend-mode:luminosity">
<path d="M53.9911 56.4569L52.2756 55.7138L49.4402 59.3523C49.4397 61.361 50.3964 63.3444 51.5789 64.0385C52.245 64.4293 53.108 64.0181 53.1785 63.2734L54.6379 57.6022C54.7158 57.1247 54.4512 56.6562 53.9911 56.4569Z" fill="#656566"/>
</g>
<g style="mix-blend-mode:luminosity">
<path d="M51.0486 57.2883L49.4402 59.3523C49.4397 61.361 50.3964 63.3446 51.5789 64.0385C52.245 64.4293 53.108 64.018 53.1785 63.2733L53.6649 61.3826C52.5376 61.3512 51.2803 59.3301 51.0486 57.2883Z" fill="#545456"/>
</g>
<g style="mix-blend-mode:luminosity">
<path d="M46.8593 52.4239C46.3344 52.1051 46.0448 51.5253 46.1224 50.935C46.4512 48.4329 45.1009 46.4141 45.1009 46.4141L44.9395 46.5082C44.6762 47.8018 43.9899 49.9714 42.2339 51.4549C41.8709 51.7614 41.6728 52.2095 41.6728 52.6728V54.9975L48.4426 59.2165C48.9921 59.5595 49.7279 59.4131 50.089 58.8889L52.2755 55.7139L46.8593 52.4239Z" fill="#5085BA"/>
</g>
<g style="mix-blend-mode:luminosity">
<path d="M49.4482 57.2317L41.8641 51.9153C41.5461 52.51 41.7228 52.8855 41.6729 54.9974L48.4427 59.2164C48.9922 59.5595 49.728 59.413 50.0891 58.8888L51.0063 57.5571C50.4807 57.6593 49.9144 57.5591 49.4482 57.2317Z" fill="#3A77AA"/>
</g>
<g style="mix-blend-mode:luminosity">
<path d="M41.1508 44.6536H38.3236C37.1182 47.5765 35.71 49.1074 35.9146 51.9626L36.5736 61.2705H41.8809V52.7724C41.8809 52.299 42.0953 51.8502 42.4648 51.5351C45.091 49.2961 45.3063 45.5193 45.3063 45.5193C42.4318 44.8631 42.0505 44.6536 41.1508 44.6536Z" fill="#5085BA"/>
</g>
<g style="mix-blend-mode:luminosity">
<path d="M41.1005 44.6536H38.3237C37.1183 47.5765 35.7102 49.1074 35.9146 51.9626L36.5737 61.2705H39.3505L38.6914 51.9626C38.4871 49.1069 39.8935 47.5807 41.1005 44.6536Z" fill="#3A77AA"/>
</g>
<g style="mix-blend-mode:luminosity">
<path d="M36.5738 61.1709C34.5383 61.6232 33.2159 62.8856 32.803 64.0499C32.5702 64.7056 33.1987 65.3486 33.9704 65.2407L41.4063 65.2064C41.9092 65.1653 42.0426 64.79 42.0426 64.283L41.8812 61.1709H36.5738Z" fill="#656566"/>
</g>
<g style="mix-blend-mode:luminosity">
<path d="M36.8486 63.8436C37.1881 62.8866 38.0528 61.8737 39.3615 61.1709H36.5739C34.5386 61.6233 33.216 62.8856 32.8031 64.0499C32.5705 64.7056 33.1988 65.3486 33.9707 65.2407L37.7356 65.2234C37.0737 65.0844 36.6266 64.4692 36.8486 63.8436Z" fill="#545456"/>
</g>
<g style="mix-blend-mode:luminosity">
<path d="M46.8866 40.7072C46.9431 39.8543 46.9865 37.6411 46.2982 36.218L42.3462 36.5472C42.3462 36.5472 42.3078 39.0015 42.9557 41.0234C43.0628 41.358 43.003 41.721 42.7987 42.0112C39.1056 47.258 39.6278 46.8557 39.2972 47.0342L37.7296 47.8804C37.3425 48.0893 37.2014 48.5562 37.4121 48.9307C37.5896 49.2461 37.3503 49.5143 37.3543 49.5042C36.7944 50.19 37.0221 51.1941 37.8286 51.5962C38.7626 52.0616 39.9133 51.7694 40.4832 50.9223C41.555 49.3288 41.6023 49.1877 41.9754 48.9182C42.8178 48.3098 45.3938 46.2666 46.3852 43.3952C46.4762 43.1319 46.5758 42.8715 46.6957 42.6188C47.075 41.82 46.8404 41.4054 46.8866 40.7072Z" fill="#F4D44E"/>
</g>
<g style="mix-blend-mode:luminosity">
<path d="M44.5067 43.1799C44.5977 42.9165 44.6973 42.6563 44.8172 42.4036C45.1967 41.6045 44.962 41.19 45.0083 40.4919C45.0602 39.7077 45.1006 37.7743 44.5719 36.3618L42.3462 36.5471C42.3462 36.5471 42.3078 39.0015 42.9557 41.0234C43.0628 41.358 43.003 41.721 42.7987 42.0111C39.1056 47.258 39.6278 46.8556 39.2972 47.0341L37.7295 47.8803C37.3424 48.0893 37.2013 48.5562 37.412 48.9307C37.5886 49.2446 37.3583 49.4942 37.3543 49.5042C36.8455 50.1273 36.9885 51.0115 37.6235 51.4698C38.0146 51.3259 38.3624 51.0671 38.6049 50.7068C39.6765 49.1134 39.7238 48.9724 40.0971 48.7028C40.9393 48.0944 43.5153 46.0514 44.5067 43.1799Z" fill="#E8C842"/>
</g>
<g style="mix-blend-mode:luminosity">
<path d="M46.8493 35.7895L46.6696 33.8136C46.5812 32.8415 45.9053 32.0472 45.0068 31.7234C44.3742 32.2272 43.997 33.0279 44.0755 33.8909C44.3347 36.2539 44.2004 36.3526 44.4465 36.5718L46.2981 36.4175C46.6315 36.3897 46.8784 36.1084 46.8493 35.7895Z" fill="#ED694A"/>
</g>
<g style="mix-blend-mode:luminosity">
<path d="M44.8872 36.5349C44.6476 36.5548 44.4357 36.3773 44.4142 36.1385L44.2111 33.9069C44.1334 33.0519 44.5313 32.2616 45.1855 31.7955C43.4202 31.0091 41.4895 32.3341 41.652 34.1201L41.855 36.3517C41.8767 36.5905 42.0967 36.7672 42.3462 36.7466C44.6769 36.5525 43.9637 36.6119 46.2982 36.4175L44.8872 36.5349Z" fill="#DB4E33"/>
</g>
<g style="mix-blend-mode:luminosity">
<path d="M44.2225 17.0193C44.2225 17.0193 39.8289 13.8291 35.941 17.5496C32.0175 21.3039 41.1404 23.3549 41.1404 23.3549L42.1253 23.3526C42.7738 23.3511 43.283 23.8839 43.2236 24.5019C43.1717 25.0418 43.0845 25.396 43.3655 25.8374L44.272 27.2607C51.0237 20.3152 44.2225 17.0193 44.2225 17.0193Z" fill="#CC9D72"/>
</g>
<g style="mix-blend-mode:luminosity">
<path d="M38.5436 19.0189C40.9651 16.7017 43.5826 17.0653 45.2127 17.6692C44.6654 17.2343 44.2225 17.0193 44.2225 17.0193C44.2225 17.0193 39.8288 13.8291 35.941 17.5496C33.4846 19.9002 36.142 21.5828 38.4728 22.5125C37.4378 21.6013 37.0685 20.4306 38.5436 19.0189Z" fill="#C19067"/>
</g>
<g style="mix-blend-mode:luminosity">
<path d="M54.2883 55.7973L52.6269 55.0777L47.2702 51.8242C47.0007 51.6603 46.852 51.3616 46.8911 51.0628C47.1334 49.22 46.6933 47.3702 46.0941 46.3C46.125 46.1272 46.1794 45.7852 46.188 45.6202C46.9925 44.3203 47.0761 43.663 47.3988 42.9828C47.4818 42.8085 47.5518 42.6127 47.6011 42.4166C47.7021 42.0156 47.4442 41.6118 47.0251 41.5152C46.6059 41.4184 46.184 41.6651 46.083 42.0662C46.0017 42.3884 45.9115 42.4187 45.6372 43.2134C44.7129 45.8903 42.2438 47.8304 41.5091 48.3612C40.8863 48.8111 40.761 49.2403 39.8343 50.5524C39.278 51.3796 38.008 51.1954 37.8578 50.5334C37.7838 50.2075 37.989 50.0025 37.9928 49.9925C38.3151 49.5974 38.3629 49.0569 38.1146 48.616C38.0843 48.5625 38.1071 48.6002 39.6914 47.7289C40.3025 47.3992 39.7441 47.7109 43.7839 42.0093C44.2648 41.3307 43.3245 41.1171 43.147 37.4989L45.7762 37.2799C45.9217 37.7166 46.0232 38.2337 46.0789 38.8241C46.1175 39.235 46.4986 39.538 46.9267 39.5009C47.3562 39.4638 47.6729 39.1006 47.6341 38.6897C47.5676 37.9848 47.4401 37.356 47.2558 36.8083C47.511 36.5436 47.6548 36.182 47.6196 35.7957L47.4404 33.8244C47.3346 32.6616 46.5883 31.6968 45.5567 31.2177C44.5482 29.7851 44.8357 28.1221 44.9533 27.6277C47.3311 25.1327 48.3327 22.7684 47.9284 20.5978C47.438 17.9647 45.0417 16.6082 44.6118 16.3842C44.3491 16.2047 43.2246 15.4833 41.6812 15.1594C40.0448 14.8158 37.6209 14.8606 35.3631 17.0211C33.8474 18.4714 33.7125 20.099 35.2121 21.4959C34.9149 22.5319 34.8665 23.6064 34.8593 24.0092L34.2542 25.378C34.1149 25.6932 34.1231 26.0512 34.277 26.3603C34.6903 27.1905 35.6638 27.0067 35.7042 27.2125C36.0394 28.9354 37.0168 30.031 38.3856 30.2181C39.308 30.3442 39.6423 31.3501 39.758 31.9133C39.3553 32.2431 39.0281 32.6457 38.7865 33.1174C37.7 35.2417 36.6527 40.5007 37.5215 44.6166L35.9039 48.0508C34.6197 50.7773 35.3455 52.8843 35.3622 54.9408C35.3904 55.335 35.7334 55.6367 36.1404 55.6367C36.5952 55.6367 36.9511 55.2687 36.9202 54.8384C36.7068 51.813 36.7071 51.9554 36.6994 51.6407C37.6633 52.9286 40.048 52.9964 41.1481 51.3607L42.1661 49.8473C42.4066 49.49 42.6432 49.5118 43.8172 48.4363C43.4124 49.3336 42.813 50.2805 41.9293 51.0273C41.4058 51.4696 41.1055 52.1167 41.1055 52.8024C41.1055 54.0835 41.1055 58.2559 41.1055 60.4334H37.3208L37.1699 58.325C37.1403 57.9133 36.7675 57.6029 36.3375 57.6308C35.9073 57.659 35.5824 58.0155 35.612 58.4273L35.7695 60.6283C34.0011 61.1958 32.5919 62.3988 32.0905 63.8125C31.6826 64.963 32.7093 66.1343 34.0464 65.9875C41.9069 65.9503 41.421 65.9555 41.4789 65.9507C42.4104 65.8745 42.8715 65.1359 42.8272 64.2482L42.6672 61.1613V56.5235L48.0055 59.8564C48.2192 59.9898 48.4504 60.0775 48.6867 60.1233C48.937 62.5195 50.7592 65.7952 52.9334 64.751C53.4825 64.4875 53.85 63.9888 53.9268 63.4087C55.0154 59.1761 55.3758 57.7843 55.3837 57.7356C55.5144 56.9307 55.0644 56.1337 54.2883 55.7973ZM38.196 46.8203L38.8413 45.4502H39.5355C39.2708 45.8499 39.0489 46.1956 38.9068 46.4366L38.196 46.8203ZM46.0485 35.7572C44.4685 35.8888 43.6687 35.9554 42.6087 36.0438L42.4346 34.1305C42.3041 32.695 44.0663 31.8434 45.2525 32.797C45.6191 33.0915 45.8435 33.5023 45.8845 33.9539L46.0485 35.7572ZM36.4667 18.0779C39.813 14.8761 43.5654 17.5005 43.7261 17.6157C43.7629 17.6424 43.8023 17.6658 43.8436 17.6857C43.8651 17.6962 45.998 18.752 46.3908 20.8601C46.675 22.3859 45.9923 24.1132 44.3601 26.0046L43.9056 25.2908C43.8921 24.8972 44.2535 23.9897 43.4898 23.1907C42.711 22.3758 41.6995 22.6643 41.2058 22.6076C39.2696 22.1566 36.1506 20.978 35.7552 19.6465C35.7042 19.4756 35.5498 18.9555 36.4667 18.0779ZM38.6058 28.7389C37.697 28.6148 37.3592 27.558 37.2388 26.939C37.0225 25.8288 35.8573 25.6636 35.8297 25.6487L36.3577 24.4543C36.4971 24.1386 36.3348 23.7528 36.5812 22.4667C38.2538 23.4038 40.8026 24.1081 41.116 24.1019C41.5674 24.1009 41.9686 24.1 42.1019 24.0997C42.2895 24.0997 42.4371 24.2539 42.4199 24.4335C42.3757 25.2542 42.2224 25.5192 42.4378 25.8573L43.4096 27.3835C43.2688 28.014 43.0732 29.4138 43.6357 30.8802C42.8114 30.8215 41.9428 30.9018 41.1696 31.1547C40.7859 29.902 39.962 28.9243 38.6058 28.7389ZM40.1886 33.7745C40.3955 33.3697 40.7043 33.0496 41.1109 32.8164C40.6387 33.9098 40.9902 34.6664 41.0815 36.4861C41.1109 36.8103 41.2759 37.1173 41.5759 37.3312C41.6042 38.1788 41.7305 39.9028 42.2709 41.4825C41.9249 41.9733 41.2287 42.9642 40.545 43.959C40.4828 43.9546 40.7813 43.958 38.9805 43.9563C38.3393 40.3445 39.2103 35.6874 40.1886 33.7745ZM41.2563 64.4601C33.5315 64.4984 33.9848 64.4872 33.881 64.5015C33.7082 64.5262 33.5245 64.4168 33.5683 64.293C34.0039 63.0653 35.4314 62.2284 36.6837 61.9279H41.1426C41.252 64.2258 41.2811 64.2668 41.2563 64.4601ZM42.6664 54.7395C42.7396 53.0864 42.4775 52.5571 42.9621 52.1477C44.0937 51.1917 44.8321 49.9937 45.3134 48.8867C45.4042 49.4572 45.4397 50.1321 45.3419 50.8764C45.2276 51.7462 45.656 52.6133 46.4333 53.0855L51.166 55.9603L49.4217 58.4932C49.2986 58.6721 49.046 58.7226 48.8581 58.6053L42.6664 54.7395ZM53.843 57.4826C52.3127 63.4416 52.3881 63.105 52.3781 63.2109C52.3601 63.4007 52.1409 63.5061 51.9682 63.4046C50.988 62.8293 50.3448 61.1864 50.2272 59.8101C50.7415 59.4593 50.7717 59.1803 52.5403 56.6807L53.6444 57.1588C53.7757 57.2156 53.855 57.3467 53.843 57.4826Z" fill="black"/>
</g>
</g>
</g>
<defs>
<filter id="filter0_ii" x="-4" y="-4" width="89" height="89" filterUnits="userSpaceOnUse" color-interpolation-filters="sRGB">
<feFlood flood-opacity="0" result="BackgroundImageFix"/>
<feBlend mode="normal" in="SourceGraphic" in2="BackgroundImageFix" result="shape"/>
<feColorMatrix in="SourceAlpha" type="matrix" values="0 0 0 0 0 0 0 0 0 0 0 0 0 0 0 0 0 0 127 0" result="hardAlpha"/>
<feOffset dx="4" dy="4"/>
<feGaussianBlur stdDeviation="2"/>
<feComposite in2="hardAlpha" operator="arithmetic" k2="-1" k3="1"/>
<feColorMatrix type="matrix" values="0 0 0 0 0 0 0 0 0 0 0 0 0 0 0 0 0 0 0.25 0"/>
<feBlend mode="normal" in2="shape" result="effect1_innerShadow"/>
<feColorMatrix in="SourceAlpha" type="matrix" values="0 0 0 0 0 0 0 0 0 0 0 0 0 0 0 0 0 0 127 0" result="hardAlpha"/>
<feOffset dx="-6" dy="-6"/>
<feGaussianBlur stdDeviation="2"/>
<feComposite in2="hardAlpha" operator="arithmetic" k2="-1" k3="1"/>
<feColorMatrix type="matrix" values="0 0 0 0 1 0 0 0 0 0.988235 0 0 0 0 0.890196 0 0 0 0.88 0"/>
<feBlend mode="normal" in2="effect1_innerShadow" result="effect2_innerShadow"/>
</filter>
</defs>
</svg>
